<?xml version="1.0" encoding="utf-8"?>
<!-- Generator: Adobe Illustrator 19.0.0, SVG Export Plug-In . SVG Version: 6.00 Build 0)  -->
<svg version="1.1" id="Layer_2" xmlns="http://www.w3.org/2000/svg" xmlns:xlink="http://www.w3.org/1999/xlink" x="0px" y="0px"
	 viewBox="-351 153 256 256" style="enable-background:new -351 153 256 256;" xml:space="preserve">
<style type="text/css">
	.st0{fill:#5A43FF;}
	.st1{enable-background:new    ;}
	.st2{clip-path:url(#SVGID_2_);enable-background:new    ;}
	.st3{fill:#858585;}
	.st4{fill:#8A8A8A;}
	.st5{fill:#8F8F8F;}
	.st6{fill:#949494;}
	.st7{fill:#999999;}
	.st8{fill:#9E9E9E;}
	.st9{fill:#A3A3A3;}
	.st10{clip-path:url(#SVGID_4_);enable-background:new    ;}
	.st11{clip-path:url(#SVGID_6_);enable-background:new    ;}
	.st12{fill:#DDDDDD;}
	.st13{clip-path:url(#SVGID_8_);enable-background:new    ;}
	.st14{clip-path:url(#SVGID_10_);enable-background:new    ;}
	.st15{fill:#808080;}
	.st16{clip-path:url(#SVGID_12_);enable-background:new    ;}
	.st17{clip-path:url(#SVGID_14_);enable-background:new    ;}
	.st18{clip-path:url(#SVGID_16_);enable-background:new    ;}
	.st19{clip-path:url(#SVGID_18_);enable-background:new    ;}
	.st20{clip-path:url(#SVGID_20_);enable-background:new    ;}
	.st21{clip-path:url(#SVGID_22_);enable-background:new    ;}
</style>
<g>
	
		<image style="overflow:visible;opacity:0.75;enable-background:new    ;" width="275" height="275" xlink:href="B33E61DA.png"  transform="matrix(1 0 0 1 -355 148)">
	</image>
	<g>
		<path class="st0" d="M-102,381c0,11-9,20-20,20h-204.4c-11,0-20-9-20-20V176c0-11,9-20,20-20H-122c11,0,20,9,20,20V381z"/>
	</g>
</g>
<g>
	
		<image style="overflow:visible;opacity:0.75;enable-background:new    ;" width="132" height="169" xlink:href="B33E61DE.png"  transform="matrix(1 0 0 1 -225 219)">
	</image>
	<g>
		<g class="st1">
			<g class="st1">
				<g>
					<defs>
						<path id="SVGID_1_" d="M-213.3,330.4l12.1-7.5c0.3-0.2,0.6-0.3,0.9-0.5c0.4-0.2,0.7-0.4,1.1-0.6s0.7-0.4,1.1-0.5
							c0.3-0.1,0.6-0.2,0.7-0.3c0.1,0,0.2,0,0.2-0.1s0.2,0,0.2-0.1s0.2,0,0.2,0c0.1,0,0.2,0,0.2,0c0.1,0,0.2,0,0.3-0.1
							c0.1,0,0.2,0,0.3,0s0.2,0,0.2,0c0.1,0,0.1,0,0.2,0c0.1,0,0.2,0,0.3,0.1s0.3,0.2,0.4,0.3c0.1,0.1,0.3,0.2,0.4,0.3
							c0.1,0.1,0.2,0.2,0.3,0.3s0.1,0.2,0.2,0.3c0.1,0.2,0.2,0.3,0.3,0.5s0.2,0.4,0.3,0.6s0.1,0.3,0.2,0.4c0,0.1,0.1,0.3,0.2,0.5
							c0.1,0.2,0.1,0.4,0.2,0.7c0.1,0.2,0.1,0.5,0.2,0.7s0.1,0.4,0.1,0.5s0.1,0.3,0.1,0.5s0.1,0.5,0.1,0.7s0.1,0.5,0.1,0.8
							c0,0.2,0.1,0.4,0.1,0.6s0.1,0.3,0.2,0.5c0.1,0.2,0.2,0.4,0.3,0.6s0.2,0.4,0.4,0.6c0.1,0.2,0.3,0.4,0.4,0.5
							c0.2,0.2,0.4,0.4,0.8,0.7c0.3,0.3,0.8,0.7,1.2,1.1s0.8,0.7,1.2,1.1c0.4,0.3,0.7,0.6,0.9,0.8c0.2,0.2,0.6,0.4,1,0.7
							c0.4,0.3,1,0.6,1.5,0.9s1,0.6,1.5,0.9s0.8,0.5,1.1,0.6c0.2,0.1,0.7,0.3,1.2,0.5s1.1,0.4,1.7,0.5s1.2,0.3,1.7,0.5
							c0.5,0.1,0.9,0.2,1.2,0.3c0.2,0,0.5,0,0.9,0s0.8,0,1.2-0.1c0.5,0,0.9-0.1,1.4-0.2s0.9-0.1,1.3-0.2c0.1,0,0.3,0,0.4-0.1
							c0.1,0,0.2,0,0.3-0.1c0.1,0,0.2,0,0.3-0.1c0.1,0,0.2,0,0.2-0.1c0.3-0.1,0.7-0.3,1.2-0.6c0.5-0.3,1-0.7,1.6-1
							c0.5-0.4,1.1-0.8,1.6-1.1c0.5-0.4,0.8-0.7,1.1-0.9c0.2-0.2,0.6-0.6,0.9-1.1c0.4-0.5,0.8-1.1,1.2-1.7s0.8-1.2,1.2-1.8
							c0.4-0.5,0.6-1,0.8-1.3s0.4-0.8,0.7-1.5c0.3-0.6,0.6-1.4,0.9-2.1c0.3-0.8,0.6-1.5,0.9-2.2c0.3-0.7,0.5-1.2,0.6-1.6
							s0.3-0.9,0.5-1.6s0.4-1.5,0.6-2.3c0.2-0.8,0.4-1.6,0.6-2.3c0.2-0.7,0.3-1.3,0.4-1.7c0.1-0.4,0.2-0.9,0.3-1.6s0.3-1.5,0.4-2.3
							s0.3-1.6,0.4-2.3c0.1-0.7,0.2-1.2,0.3-1.6c0.1-0.3,0.1-0.9,0.2-1.5c0.1-0.6,0.2-1.3,0.3-2s0.2-1.4,0.2-1.9
							c0.1-0.6,0.1-1,0.2-1.3c0-0.3,0.1-0.7,0.1-1.1c0-0.5,0.1-1,0.1-1.5s0.1-1,0.1-1.4s0.1-0.7,0.1-0.9c0-0.2,0-0.5,0.1-0.9
							c0-0.4,0.1-0.9,0.1-1.5s0.1-1.2,0.1-1.8c0-0.6,0.1-1.2,0.1-1.8c0-0.6,0-1.5,0.1-2.5c0-1,0-2.3,0-3.5s0-2.4,0-3.4s0-1.9,0-2.4
							s-0.1-1.3-0.2-2.1s-0.2-1.7-0.3-2.6s-0.2-1.7-0.3-2.3s-0.2-1-0.2-1.1l3.5-10c0,0.1,0.1,0.7,0.3,1.5c0.1,0.8,0.3,1.9,0.4,3
							s0.3,2.3,0.4,3.4c0.1,1.1,0.2,2.1,0.2,2.8c0,0.7,0,1.8,0.1,3.2c0,1.4,0,2.9,0,4.5s0,3.2,0,4.6s0,2.6-0.1,3.3
							c0,0.8-0.1,1.6-0.1,2.4s-0.1,1.6-0.1,2.4s-0.1,1.4-0.1,2s-0.1,1-0.1,1.2s0,0.7-0.1,1.2c0,0.5-0.1,1.2-0.1,1.9
							c-0.1,0.7-0.1,1.3-0.2,2c-0.1,0.6-0.1,1.1-0.1,1.5s-0.1,1-0.2,1.8c-0.1,0.8-0.2,1.7-0.3,2.6s-0.2,1.8-0.3,2.6
							c-0.1,0.8-0.2,1.5-0.3,1.9c-0.1,0.5-0.2,1.2-0.3,2.1s-0.3,1.9-0.5,3c-0.2,1-0.4,2.1-0.6,3s-0.3,1.7-0.4,2.2
							c-0.1,0.5-0.3,1.3-0.5,2.2c-0.2,0.9-0.5,2-0.8,3.1s-0.6,2.1-0.9,3.1s-0.5,1.7-0.7,2.2s-0.4,1.2-0.8,2.1s-0.8,1.9-1.2,2.9
							s-0.8,2-1.2,2.8s-0.7,1.5-0.9,1.9s-0.6,1-1.1,1.7s-1,1.5-1.6,2.3s-1.1,1.6-1.6,2.2s-0.9,1.2-1.2,1.5s-0.8,0.7-1.4,1.2
							c-0.6,0.5-1.3,1-2.1,1.5s-1.5,1-2.1,1.4s-1.2,0.7-1.6,0.8c-0.1,0-0.2,0.1-0.3,0.1s-0.2,0.1-0.4,0.1c-0.1,0-0.3,0.1-0.4,0.1
							c-0.2,0-0.3,0.1-0.5,0.1c-0.5,0.1-1.1,0.2-1.7,0.3s-1.2,0.2-1.8,0.2c-0.6,0.1-1.2,0.1-1.6,0.1c-0.5,0-0.9,0-1.2,0
							c-0.4-0.1-0.9-0.2-1.6-0.4c-0.7-0.2-1.5-0.4-2.2-0.6c-0.8-0.2-1.5-0.5-2.2-0.7s-1.2-0.4-1.5-0.6s-0.8-0.4-1.4-0.8
							s-1.3-0.8-2-1.2s-1.4-0.8-1.9-1.2c-0.6-0.4-1.1-0.7-1.3-0.9c-0.3-0.2-0.7-0.6-1.2-1s-1.1-0.9-1.6-1.4c-0.6-0.5-1.1-1-1.6-1.4
							s-0.8-0.8-1-1s-0.4-0.5-0.6-0.7c-0.2-0.3-0.4-0.5-0.5-0.8c-0.2-0.3-0.3-0.5-0.4-0.8c-0.1-0.3-0.2-0.5-0.2-0.7
							s-0.1-0.5-0.1-0.8s-0.1-0.7-0.2-1c-0.1-0.3-0.1-0.7-0.2-0.9c-0.1-0.3-0.1-0.5-0.1-0.7c0-0.1-0.1-0.4-0.2-0.6
							c-0.1-0.3-0.2-0.6-0.2-0.9s-0.2-0.6-0.3-0.9s-0.2-0.5-0.2-0.6c-0.1-0.1-0.1-0.3-0.2-0.5s-0.2-0.5-0.4-0.7s-0.3-0.5-0.4-0.7
							s-0.2-0.4-0.3-0.5s-0.2-0.2-0.4-0.3c-0.2-0.1-0.3-0.3-0.5-0.4s-0.4-0.2-0.5-0.3c-0.2-0.1-0.3-0.1-0.4-0.2c-0.1,0-0.1,0-0.2,0
							c-0.1,0-0.2,0-0.3,0s-0.3,0-0.4,0.1s-0.3,0-0.5,0.1c-0.1,0-0.2,0-0.3,0.1s-0.2,0-0.3,0.1s-0.2,0-0.3,0.1s-0.2,0-0.3,0.1
							c-0.2,0.1-0.6,0.2-1,0.4c-0.4,0.2-0.9,0.4-1.4,0.6s-1,0.5-1.5,0.8C-212.5,329.9-212.9,330.2-213.3,330.4z"/>
					</defs>
					<clipPath id="SVGID_2_">
						<use xlink:href="#SVGID_1_"  style="overflow:visible;"/>
					</clipPath>
					<g class="st2">
						<path class="st3" d="M-213.3,330.4l12.1-7.5c0.2-0.1,0.5-0.3,0.9-0.5c0.3-0.2,0.7-0.4,1.1-0.5s0.7-0.3,1-0.5
							c0.3-0.1,0.6-0.2,0.8-0.3l-10.9,7c-0.3,0.1-0.6,0.2-1,0.4s-0.9,0.4-1.4,0.6s-1,0.5-1.4,0.7C-212.6,330-213,330.2-213.3,330.4"
							/>
						<path class="st4" d="M-208.3,328l10.9-7l0,0l0,0l0,0l0,0c0.1,0,0.2,0,0.2-0.1s0.2,0,0.2-0.1s0.2,0,0.2,0c0.1,0,0.2,0,0.2,0
							c0.1,0,0.1,0,0.2,0c0.1,0,0.1,0,0.2,0c0.1,0,0.1,0,0.2,0h0.1l-10.4,6.8c-0.1,0-0.1,0-0.2,0s-0.1,0-0.2,0c-0.1,0-0.1,0-0.2,0
							s-0.1,0-0.2,0c-0.1,0-0.2,0-0.3,0.1s-0.2,0-0.3,0.1s-0.2,0-0.3,0.1S-208.2,327.9-208.3,328L-208.3,328
							C-208.2,327.9-208.2,327.9-208.3,328L-208.3,328L-208.3,328"/>
						<path class="st5" d="M-206,327.5l10.4-6.8h0.1h0.1h0.1h0.1l-10.2,6.8h-0.1h-0.1c0,0-0.1,0-0.2,0S-206,327.5-206,327.5"/>
						<polyline class="st6" points="-205.5,327.5 -195.2,320.7 -195.2,320.7 -195.2,320.7 -195.2,320.7 -195.2,320.7 -195.2,320.7 
							-195.2,320.7 -195.2,320.7 -195.2,320.7 -205.4,327.5 -205.4,327.5 -205.4,327.5 -205.4,327.5 -205.5,327.5 -205.5,327.5 
							-205.5,327.5 -205.5,327.5 -205.5,327.5 						"/>
						<path class="st7" d="M-205.4,327.5l10.2-6.8l0,0l0,0l0,0l0,0L-205.4,327.5C-205.3,327.5-205.3,327.5-205.4,327.5
							C-205.3,327.5-205.3,327.5-205.4,327.5L-205.4,327.5L-205.4,327.5"/>
						<path class="st8" d="M-205.3,327.5l10.2-6.8h0.1h0.1c0,0,0.1,0,0.1,0.1s0.1,0,0.1,0.1l-10.1,6.9l-0.1-0.1c0,0-0.1,0-0.1-0.1
							c0,0-0.1,0-0.1-0.1C-205.2,327.6-205.2,327.6-205.3,327.5"/>
						<path class="st9" d="M-204.8,327.8l10.1-6.9c0.1,0.1,0.2,0.1,0.3,0.2s0.2,0.1,0.3,0.2s0.2,0.1,0.2,0.2
							c0.1,0.1,0.1,0.1,0.1,0.2c0.1,0.1,0.1,0.2,0.2,0.3c0.1,0.2,0.2,0.3,0.3,0.5s0.2,0.4,0.3,0.5c0.1,0.2,0.2,0.3,0.2,0.4l-9.5,7.7
							c-0.1-0.1-0.1-0.3-0.3-0.5c-0.1-0.2-0.2-0.5-0.4-0.7c-0.1-0.2-0.3-0.5-0.4-0.7c-0.1-0.2-0.2-0.4-0.3-0.4
							c0-0.1-0.1-0.1-0.2-0.2c-0.1-0.1-0.2-0.2-0.3-0.2c-0.1-0.1-0.2-0.2-0.3-0.3C-204.6,327.9-204.7,327.9-204.8,327.8"/>
						<path class="st8" d="M-202.4,331.1l9.5-7.7l0,0l0,0l0,0l0,0c0,0.1,0.1,0.3,0.2,0.5c0.1,0.2,0.1,0.4,0.2,0.7
							c0.1,0.2,0.1,0.5,0.2,0.7s0.1,0.4,0.1,0.5s0,0.2,0.1,0.4s0.1,0.3,0.1,0.5s0.1,0.4,0.1,0.6s0.1,0.4,0.1,0.6l-9.1,9.1
							c0-0.2-0.1-0.5-0.1-0.8c-0.1-0.3-0.1-0.5-0.2-0.8s-0.1-0.5-0.1-0.7s-0.1-0.4-0.1-0.5s-0.1-0.4-0.2-0.6
							c-0.1-0.3-0.2-0.6-0.2-0.9s-0.2-0.6-0.3-0.9S-202.3,331.3-202.4,331.1C-202.3,331.1-202.3,331.1-202.4,331.1
							C-202.3,331.1-202.3,331.1-202.4,331.1L-202.4,331.1L-202.4,331.1"/>
						<path class="st7" d="M-200.9,336.9l9.1-9.1v0.1v0.1v0.1v0.1l0,0l0,0l0,0l0,0l-9.1,9.3l0,0l0,0l0,0l0,0v-0.1v-0.1
							c0-0.1,0-0.1,0-0.2C-200.9,337-200.9,337-200.9,336.9"/>
						<path class="st8" d="M-200.8,337.5l9.1-9.3v0.1v0.1v0.1c0,0,0,0.1,0.1,0.1l-9.1,9.4c0-0.1,0-0.1-0.1-0.2c0-0.1,0-0.1-0.1-0.2
							s0-0.1,0-0.2C-200.8,337.6-200.8,337.6-200.8,337.5"/>
						<path class="st9" d="M-200.6,338.2l9.1-9.4c0.1,0.1,0.1,0.3,0.2,0.4c0.1,0.2,0.2,0.3,0.3,0.5s0.2,0.3,0.3,0.4s0.2,0.3,0.3,0.4
							c0.2,0.2,0.4,0.4,0.8,0.7c0.3,0.3,0.8,0.7,1.2,1.1s0.8,0.7,1.2,1.1c0.4,0.3,0.7,0.6,0.9,0.8c0.1,0.1,0.2,0.2,0.4,0.3
							c0.1,0.1,0.3,0.2,0.5,0.3c0.2,0.1,0.4,0.2,0.6,0.4c0.2,0.1,0.4,0.3,0.7,0.4l-6.7,11.6c-0.3-0.2-0.6-0.4-0.9-0.5
							c-0.3-0.2-0.5-0.3-0.8-0.5s-0.5-0.3-0.6-0.4c-0.2-0.1-0.3-0.2-0.5-0.3c-0.3-0.2-0.7-0.6-1.2-1s-1.1-0.9-1.6-1.4
							c-0.6-0.5-1.1-1-1.6-1.4s-0.8-0.8-1-1s-0.3-0.3-0.4-0.5c-0.1-0.2-0.3-0.4-0.4-0.6c-0.1-0.2-0.3-0.4-0.4-0.6
							S-200.5,338.4-200.6,338.2"/>
						<path class="st8" d="M-191,347.1l6.7-11.6c0.3,0.2,0.6,0.4,0.9,0.5s0.6,0.3,0.8,0.5c0.3,0.2,0.5,0.3,0.7,0.4s0.4,0.2,0.5,0.3
							c0,0,0.1,0.1,0.2,0.1s0.1,0.1,0.2,0.1c0.1,0,0.2,0.1,0.2,0.1c0.1,0,0.2,0.1,0.3,0.1l-5.5,12.3c-0.1,0-0.2-0.1-0.3-0.1
							s-0.2-0.1-0.3-0.1s-0.2-0.1-0.3-0.1s-0.2-0.1-0.2-0.1c-0.2-0.1-0.4-0.2-0.7-0.4c-0.3-0.2-0.6-0.3-1-0.6
							c-0.4-0.2-0.7-0.4-1.1-0.7C-190.2,347.6-190.6,347.4-191,347.1"/>
						<path class="st7" d="M-185.9,349.9l5.5-12.3c0.4,0.1,0.8,0.3,1.2,0.4s0.9,0.3,1.3,0.4c0.4,0.1,0.9,0.2,1.3,0.3
							c0.4,0.1,0.7,0.2,1,0.2l-3.9,12.7c-0.3-0.1-0.8-0.2-1.3-0.3c-0.5-0.1-1.1-0.3-1.7-0.5s-1.2-0.4-1.8-0.5
							C-184.9,350.3-185.4,350.1-185.9,349.9"/>
						<path class="st6" d="M-179.6,351.7l3.9-12.7l0,0l0,0l0,0l0,0h0.1h0.1h0.1h0.1l-3.8,12.7c-0.1,0-0.1,0-0.1,0h-0.1h-0.1H-179.6
							L-179.6,351.7C-179.5,351.8-179.5,351.8-179.6,351.7C-179.5,351.8-179.6,351.8-179.6,351.7L-179.6,351.7"/>
						<path class="st5" d="M-178.9,351.8l3.8-12.7c0.2,0,0.3,0,0.6,0c0.2,0,0.4,0,0.7,0c0.2,0,0.5,0,0.7-0.1s0.5-0.1,0.8-0.1
							l-2.9,12.7c-0.3,0-0.7,0.1-1,0.1s-0.7,0.1-1,0.1s-0.6,0-0.9,0C-178.5,351.8-178.7,351.8-178.9,351.8"/>
						<path class="st4" d="M-175.3,351.6l2.9-12.7c0.2,0,0.3,0,0.5-0.1c0.1,0,0.3,0,0.4-0.1c0.1,0,0.3,0,0.4-0.1s0.3,0,0.4-0.1
							c0.1,0,0.3,0,0.4-0.1c0.1,0,0.2,0,0.3-0.1c0.1,0,0.2,0,0.3-0.1c0.1,0,0.2,0,0.2-0.1l0,0l0,0l0,0l0,0l-1.9,12.5l0,0l0,0l0,0
							l0,0c-0.1,0-0.2,0.1-0.3,0.1s-0.2,0.1-0.4,0.1c-0.1,0-0.3,0.1-0.4,0.1c-0.2,0-0.3,0.1-0.5,0.1s-0.4,0.1-0.5,0.1
							c-0.2,0-0.4,0.1-0.6,0.1c-0.2,0-0.4,0.1-0.6,0.1C-174.9,351.5-175.1,351.6-175.3,351.6"/>
						<path class="st3" d="M-171.4,350.9l1.9-12.5c0.3-0.1,0.7-0.3,1.2-0.6c0.5-0.3,1-0.7,1.6-1c0.5-0.4,1.1-0.8,1.5-1.1
							s0.8-0.7,1.1-0.9c0.2-0.2,0.6-0.6,0.9-1.1c0.4-0.5,0.8-1.1,1.2-1.7s0.8-1.2,1.2-1.8c0.4-0.5,0.6-1,0.8-1.3s0.4-0.8,0.7-1.5
							c0.3-0.6,0.6-1.4,0.9-2.1c0.3-0.8,0.6-1.5,0.9-2.2c0.3-0.7,0.5-1.2,0.6-1.6s0.3-0.9,0.5-1.6s0.4-1.5,0.6-2.3
							c0.2-0.8,0.4-1.6,0.6-2.3c0.2-0.7,0.3-1.3,0.4-1.7c0.1-0.4,0.2-0.9,0.3-1.6s0.3-1.5,0.4-2.3s0.3-1.6,0.4-2.3
							c0.1-0.7,0.2-1.2,0.3-1.6c0.1-0.3,0.1-0.9,0.2-1.5c0.1-0.6,0.2-1.3,0.3-2s0.2-1.4,0.2-1.9c0.1-0.6,0.1-1,0.2-1.3
							c0-0.3,0.1-0.7,0.1-1.1c0-0.5,0.1-1,0.1-1.5s0.1-1,0.1-1.4s0.1-0.7,0.1-0.9c0-0.2,0-0.5,0.1-0.9c0-0.4,0.1-0.9,0.1-1.5
							s0.1-1.2,0.1-1.8c0-0.6,0.1-1.2,0.1-1.8c0-0.6,0-1.5,0.1-2.5c0-1,0-2.3,0-3.5s0-2.4,0-3.4s0-1.9,0-2.4s-0.1-1.3-0.2-2.1
							s-0.2-1.7-0.3-2.6s-0.2-1.7-0.3-2.3s-0.2-1-0.2-1.1l3.5-10c0,0.1,0.1,0.7,0.3,1.5c0.1,0.8,0.3,1.9,0.4,3s0.3,2.3,0.4,3.4
							c0.1,1.1,0.2,2.1,0.2,2.8c0,0.7,0,1.8,0.1,3.2c0,1.4,0,2.9,0,4.5s0,3.2,0,4.6s0,2.6-0.1,3.3c0,0.8-0.1,1.6-0.1,2.4
							s-0.1,1.6-0.1,2.4s-0.1,1.4-0.1,2s-0.1,1-0.1,1.2s0,0.7-0.1,1.2c0,0.5-0.1,1.2-0.1,1.9c-0.1,0.7-0.1,1.3-0.2,2
							c-0.1,0.6-0.1,1.1-0.1,1.5s-0.1,1-0.2,1.8c-0.1,0.8-0.2,1.7-0.3,2.6s-0.2,1.8-0.3,2.6c-0.1,0.8-0.2,1.5-0.3,1.9
							c-0.1,0.5-0.2,1.2-0.3,2.1s-0.3,1.9-0.5,3c-0.2,1-0.4,2.1-0.6,3s-0.3,1.7-0.4,2.2c-0.1,0.5-0.3,1.3-0.5,2.2
							c-0.2,0.9-0.5,2-0.8,3.1s-0.6,2.1-0.9,3.1s-0.5,1.7-0.7,2.2s-0.4,1.2-0.8,2.1s-0.8,1.9-1.2,2.9s-0.8,2-1.2,2.8
							s-0.7,1.5-0.9,1.9s-0.6,1-1.1,1.7s-1,1.5-1.6,2.3s-1.1,1.6-1.6,2.2s-0.9,1.2-1.2,1.5s-0.8,0.7-1.4,1.2s-1.3,1-2,1.5
							s-1.5,1-2.1,1.4C-170.5,350.5-171,350.8-171.4,350.9"/>
					</g>
				</g>
			</g>
			<g class="st1">
				<g>
					<defs>
						<path id="SVGID_3_" d="M-173.2,271.7l-3.1-8.9c0.1,0.2,0.1,0.4,0.2,0.5c0.1,0.2,0.1,0.3,0.2,0.5c0.1,0.1,0.1,0.3,0.2,0.4
							c0.1,0.1,0.1,0.2,0.2,0.3c0.2,0.2,0.5,0.4,0.8,0.7c0.4,0.3,0.8,0.5,1.2,0.8s0.9,0.5,1.3,0.6c0.4,0.2,0.8,0.3,1,0.3
							c0.1,0,0.3,0,0.5,0s0.3,0,0.5,0s0.4,0,0.6-0.1c0.2,0,0.4-0.1,0.5-0.1s0.2,0,0.4-0.1c0.1,0,0.2,0,0.3-0.1c0.1,0,0.2,0,0.3-0.1
							c0.1,0,0.1,0,0.2-0.1c0.1-0.1,0.5-0.2,1-0.5s1.3-0.6,2.1-1s1.8-0.9,2.9-1.4c1.1-0.5,2.2-1.1,3.4-1.7c0.9-0.5,1.8-0.9,2.7-1.3
							s1.7-0.7,2.5-1s1.5-0.5,2.1-0.7s1.1-0.3,1.5-0.4c0.1,0,0.2,0,0.3,0s0.2,0,0.2,0c0.1,0,0.1,0,0.2,0c0,0,0.1,0,0.1,0.1l-3.5,10
							c0,0,0,0-0.1,0h-0.1c0,0-0.1,0-0.2,0c-0.1,0-0.1,0-0.2,0c-0.3,0.1-0.7,0.2-1.1,0.3c-0.5,0.1-1,0.3-1.6,0.5s-1.2,0.5-1.9,0.8
							s-1.3,0.6-2,0.9c-0.9,0.4-1.7,0.9-2.5,1.3s-1.5,0.8-2.2,1.1s-1.2,0.6-1.6,0.8c-0.4,0.2-0.7,0.3-0.8,0.4c0,0-0.1,0-0.1,0.1
							c-0.1,0-0.1,0-0.2,0.1s-0.2,0-0.2,0.1c-0.1,0-0.2,0-0.3,0.1c-0.1,0-0.3,0-0.4,0.1c-0.1,0-0.3,0-0.4,0.1c-0.1,0-0.3,0-0.4,0
							c-0.1,0-0.2,0-0.4,0s-0.4-0.1-0.8-0.2c-0.3-0.1-0.6-0.3-1-0.5s-0.7-0.4-0.9-0.6c-0.3-0.2-0.5-0.4-0.6-0.5c0,0-0.1-0.1-0.1-0.2
							s-0.1-0.2-0.1-0.3c0-0.1-0.1-0.2-0.1-0.4C-173.1,271.9-173.1,271.8-173.2,271.7z"/>
					</defs>
					<clipPath id="SVGID_4_">
						<use xlink:href="#SVGID_3_"  style="overflow:visible;"/>
					</clipPath>
					<g class="st10">
						<path class="st3" d="M-149.1,258.3l-3.5,10c0,0,0,0-0.1,0h-0.1c0,0-0.1,0-0.2,0c-0.1,0-0.1,0-0.2,0c-0.3,0.1-0.7,0.2-1.1,0.3
							c-0.5,0.1-1,0.3-1.6,0.5s-1.2,0.5-1.9,0.8s-1.3,0.6-2,0.9c-0.9,0.4-1.7,0.9-2.5,1.3s-1.5,0.8-2.2,1.1s-1.2,0.6-1.6,0.8
							c-0.4,0.2-0.7,0.3-0.8,0.4c0,0-0.1,0-0.1,0.1c-0.1,0-0.1,0-0.2,0.1s-0.2,0-0.2,0.1c-0.1,0-0.2,0-0.3,0.1c-0.1,0-0.3,0-0.4,0.1
							c-0.1,0-0.3,0-0.4,0.1c-0.1,0-0.3,0-0.4,0c-0.1,0-0.2,0-0.4,0s-0.4-0.1-0.8-0.2c-0.3-0.1-0.6-0.3-1-0.5s-0.7-0.4-0.9-0.6
							c-0.3-0.2-0.5-0.4-0.6-0.5c0,0-0.1-0.1-0.1-0.2s-0.1-0.2-0.1-0.3c0-0.1-0.1-0.2-0.1-0.4c-0.1-0.1-0.1-0.3-0.2-0.4l-3.1-8.9
							c0.1,0.2,0.1,0.4,0.2,0.5c0.1,0.2,0.1,0.3,0.2,0.5c0.1,0.1,0.1,0.3,0.2,0.4c0.1,0.1,0.1,0.2,0.2,0.3c0.2,0.2,0.5,0.4,0.8,0.7
							c0.4,0.3,0.8,0.5,1.2,0.8s0.9,0.5,1.3,0.6c0.4,0.2,0.8,0.3,1,0.3c0.1,0,0.3,0,0.5,0s0.3,0,0.5,0s0.4,0,0.6-0.1
							c0.2,0,0.4-0.1,0.5-0.1s0.2,0,0.4-0.1c0.1,0,0.2,0,0.3-0.1c0.1,0,0.2,0,0.3-0.1c0.1,0,0.1,0,0.2-0.1c0.1-0.1,0.5-0.2,1-0.5
							s1.3-0.6,2.1-1s1.8-0.9,2.9-1.4c1.1-0.5,2.2-1.1,3.4-1.7c0.9-0.5,1.8-0.9,2.7-1.3s1.7-0.7,2.5-1s1.5-0.5,2.1-0.7
							s1.1-0.3,1.5-0.4c0.1,0,0.2,0,0.3,0s0.2,0,0.2,0C-149.3,258.2-149.2,258.2-149.1,258.3C-149.1,258.2-149.1,258.3-149.1,258.3"
							/>
					</g>
				</g>
			</g>
			<g class="st1">
				<g>
					<defs>
						<path id="SVGID_5_" d="M-117.2,237.5l-11.2,15l0,0l0,0l0,0l0,0c-0.1,0.1-0.3,0.3-0.6,0.6c-0.3,0.2-0.6,0.5-0.9,0.8
							s-0.7,0.5-1,0.8c-0.3,0.2-0.6,0.4-0.7,0.5c-0.2,0.1-0.5,0.3-0.8,0.5c-0.4,0.2-0.8,0.4-1.2,0.7c-0.4,0.2-0.8,0.5-1.2,0.7
							s-0.7,0.4-0.9,0.5s-0.5,0.3-0.8,0.4c-0.3,0.2-0.7,0.4-1.1,0.6c-0.4,0.2-0.8,0.4-1.1,0.6s-0.6,0.3-0.7,0.4
							c-0.2,0.1-0.4,0.2-0.6,0.4c-0.3,0.2-0.5,0.3-0.8,0.5s-0.5,0.4-0.7,0.5s-0.4,0.3-0.5,0.4l0,0l0,0l0,0l0,0l6.8-12.1
							c0,0,0,0,0-0.1c0,0,0,0,0-0.1l0,0l0,0c0.1-0.1,0.3-0.3,0.6-0.5s0.6-0.4,1-0.7s0.7-0.5,1.1-0.7c0.3-0.2,0.6-0.4,0.8-0.5
							s0.6-0.3,1-0.5s0.9-0.5,1.4-0.8s1-0.5,1.5-0.8s0.8-0.4,1.1-0.6c0.3-0.1,0.7-0.3,1.1-0.6c0.5-0.3,1-0.6,1.6-0.9
							c0.5-0.3,1.1-0.6,1.6-0.9c0.5-0.3,0.8-0.5,1.1-0.7c0.2-0.2,0.6-0.4,1-0.7s0.8-0.7,1.3-1s0.9-0.7,1.2-1
							c0.4-0.3,0.6-0.6,0.8-0.8l0,0C-117,237.4-117.3,237.6-117.2,237.5C-117.3,237.6-117.2,237.6-117.2,237.5L-117.2,237.5z"/>
					</defs>
					<clipPath id="SVGID_6_">
						<use xlink:href="#SVGID_5_"  style="overflow:visible;"/>
					</clipPath>
					<g class="st11">
						<path class="st3" d="M-117.2,237.5l-11.2,15l0,0l0,0l0,0l0,0c-0.1,0.1-0.3,0.3-0.6,0.6c-0.3,0.2-0.6,0.5-0.9,0.8
							s-0.7,0.5-1,0.8c-0.3,0.2-0.6,0.4-0.7,0.5c-0.2,0.1-0.5,0.3-0.8,0.5c-0.4,0.2-0.8,0.4-1.2,0.7c-0.4,0.2-0.8,0.5-1.2,0.7
							s-0.7,0.4-0.9,0.5s-0.5,0.3-0.8,0.4c-0.3,0.2-0.7,0.4-1.1,0.6c-0.4,0.2-0.8,0.4-1.1,0.6s-0.6,0.3-0.7,0.4
							c-0.2,0.1-0.4,0.2-0.6,0.4c-0.3,0.2-0.5,0.3-0.8,0.5s-0.5,0.4-0.7,0.5s-0.4,0.3-0.5,0.4l0,0l0,0l0,0l0,0l6.8-12.1
							c0,0,0,0,0-0.1c0,0,0,0,0-0.1l0,0l0,0c0.1-0.1,0.3-0.3,0.6-0.5s0.6-0.4,1-0.7s0.7-0.5,1.1-0.7c0.3-0.2,0.6-0.4,0.8-0.5
							s0.6-0.3,1-0.5s0.9-0.5,1.4-0.8s1-0.5,1.5-0.8s0.8-0.4,1.1-0.6c0.3-0.1,0.7-0.3,1.1-0.6c0.5-0.3,1-0.6,1.6-0.9
							c0.5-0.3,1.1-0.6,1.6-0.9c0.5-0.3,0.8-0.5,1.1-0.7c0.2-0.2,0.6-0.4,1-0.7s0.8-0.7,1.3-1s0.9-0.7,1.2-1
							c0.4-0.3,0.6-0.6,0.8-0.8l0,0C-117,237.4-117.3,237.6-117.2,237.5C-117.3,237.6-117.2,237.6-117.2,237.5L-117.2,237.5"/>
					</g>
				</g>
			</g>
			<g>
				<path class="st12" d="M-120,227.2L-120,227.2h0.2h0.1h0.1c0.1,0,0.2,0,0.3,0.1c0.1,0,0.3,0.1,0.5,0.2c0.2,0.1,0.3,0.1,0.5,0.2
					c0.1,0.1,0.3,0.1,0.3,0.2c0.1,0,0.2,0.1,0.3,0.2s0.3,0.2,0.4,0.4s0.3,0.3,0.4,0.4c0.1,0.1,0.2,0.2,0.3,0.3
					c0.1,0.1,0.1,0.2,0.2,0.4s0.2,0.3,0.3,0.5c0.1,0.2,0.2,0.4,0.3,0.5c0.1,0.2,0.1,0.3,0.2,0.4c0,0.1,0.1,0.3,0.1,0.5
					s0.1,0.5,0.1,0.7c0,0.3,0.1,0.5,0.1,0.8s0,0.5,0,0.7s-0.1,0.5-0.2,0.9s-0.3,0.8-0.5,1.2s-0.4,0.8-0.7,1.2s-0.4,0.6-0.6,0.8
					c-0.1,0.2-0.4,0.4-0.8,0.8c-0.4,0.3-0.8,0.7-1.2,1s-0.9,0.7-1.3,1s-0.7,0.6-1,0.7c-0.2,0.2-0.6,0.4-1.1,0.7s-1,0.6-1.6,0.9
					c-0.5,0.3-1.1,0.6-1.6,0.9c-0.5,0.3-0.9,0.5-1.1,0.6c-0.3,0.1-0.6,0.3-1.1,0.6c-0.5,0.3-1,0.5-1.5,0.8s-1,0.5-1.4,0.8
					c-0.4,0.2-0.8,0.4-1,0.5s-0.5,0.3-0.8,0.5s-0.7,0.4-1.1,0.7s-0.7,0.5-1,0.7s-0.5,0.4-0.6,0.5s-0.2,0.3-0.3,0.6s-0.2,0.6-0.2,1
					s-0.1,0.8-0.1,1.2s0,0.8,0,1.1s0.1,0.9,0.1,1.6s0.1,1.5,0.2,2.3c0.1,0.8,0.1,1.6,0.2,2.3c0.1,0.7,0.1,1.3,0.1,1.7
					c0,0.4,0.1,0.9,0.1,1.5s0.1,1.3,0.1,2s0.1,1.3,0.1,1.8s0.1,0.9,0.1,1s0,0.5,0,1s0,1.1,0.1,1.7c0,0.6,0,1.3,0.1,1.9
					s0,1.1,0.1,1.5c0,0.4,0,1,0,1.9c0,0.8,0,1.8,0,2.8s0,2,0,2.9s0,1.7,0,2.2s0,1.3,0,2.4s0,2.2-0.1,3.4c0,1.2-0.1,2.4-0.1,3.5
					s-0.1,2-0.1,2.5c0,0.6-0.1,1.5-0.1,2.6c-0.1,1.1-0.2,2.4-0.3,3.7c-0.1,1.3-0.2,2.6-0.3,3.7s-0.2,2.1-0.3,2.7s-0.2,1.7-0.4,3
					s-0.5,2.8-0.7,4.3c-0.3,1.5-0.6,3-0.8,4.3s-0.5,2.4-0.6,3.1c-0.2,0.7-0.5,1.8-0.9,3.1c-0.4,1.3-0.9,2.8-1.3,4.4
					c-0.5,1.5-1,3-1.4,4.3s-0.8,2.4-1.1,3.1s-0.7,1.7-1.3,2.9c-0.6,1.2-1.3,2.6-2,4s-1.4,2.7-2.1,3.9c-0.6,1.2-1.2,2.1-1.5,2.7
					c-0.4,0.6-0.9,1.3-1.6,2.2c-0.7,0.8-1.4,1.7-2.1,2.6c-0.7,0.8-1.4,1.6-1.9,2.2s-0.9,1-1,1.1s-0.3,0.3-0.6,0.5s-0.6,0.4-0.9,0.7
					c-0.3,0.2-0.6,0.5-0.9,0.7c-0.3,0.2-0.5,0.4-0.7,0.5s-0.4,0.3-0.7,0.4c-0.3,0.2-0.7,0.4-1.1,0.6c-0.4,0.2-0.8,0.4-1.1,0.6
					s-0.6,0.3-0.8,0.4s-0.5,0.2-0.9,0.4c-0.4,0.1-0.8,0.3-1.3,0.5s-0.9,0.3-1.3,0.5s-0.7,0.2-0.9,0.3c-0.1,0-0.2,0.1-0.4,0.1
					s-0.4,0.1-0.6,0.1c-0.2,0-0.5,0.1-0.8,0.1c-0.3,0.1-0.6,0.1-0.8,0.2c-0.3,0-0.6,0.1-0.8,0.1c-0.3,0-0.5,0.1-0.8,0.1
					s-0.5,0.1-0.7,0.1s-0.4,0.1-0.6,0.1c-0.4,0-1,0.1-1.7,0.1s-1.6,0-2.5-0.1c-0.9,0-1.8-0.1-2.6-0.1s-1.5-0.1-1.9-0.1
					s-1.1-0.2-1.9-0.3c-0.8-0.2-1.8-0.4-2.7-0.6s-1.9-0.4-2.7-0.7c-0.8-0.2-1.5-0.4-2-0.5c-0.4-0.1-1.1-0.4-1.9-0.7
					s-1.7-0.7-2.7-1.1c-0.9-0.4-1.9-0.8-2.6-1.2s-1.5-0.7-1.9-0.9c-0.4-0.2-1-0.6-1.7-1c-0.7-0.5-1.5-1-2.3-1.6s-1.6-1.1-2.2-1.6
					s-1.2-0.9-1.5-1.2c-0.3-0.3-0.8-0.8-1.3-1.3c-0.5-0.6-1.1-1.3-1.6-2c-0.6-0.7-1.1-1.4-1.5-2s-0.8-1.2-1-1.5s-0.4-0.9-0.6-1.6
					s-0.5-1.4-0.7-2.2c-0.2-0.8-0.4-1.5-0.6-2.2s-0.3-1.2-0.3-1.4c0-0.3-0.1-0.7-0.1-1.2s0-1,0-1.5s0-1,0.1-1.5c0-0.4,0.1-0.8,0.1-1
					s0.1-0.5,0.3-0.8s0.3-0.7,0.5-1.1s0.4-0.7,0.6-1s0.4-0.6,0.5-0.7s0.5-0.4,1-0.7c0.5-0.3,1.1-0.6,1.7-0.9
					c0.6-0.3,1.3-0.6,1.8-0.9c0.6-0.2,1-0.4,1.3-0.5c0.1,0,0.2-0.1,0.3-0.1s0.2,0,0.3-0.1s0.2,0,0.3-0.1s0.2,0,0.3-0.1
					c0.2,0,0.3-0.1,0.5-0.1s0.3,0,0.4-0.1c0.1,0,0.2,0,0.3,0s0.2,0,0.2,0c0.1,0,0.2,0.1,0.4,0.2s0.4,0.2,0.5,0.3s0.4,0.3,0.5,0.4
					c0.2,0.1,0.3,0.2,0.4,0.3c0.1,0.1,0.2,0.3,0.3,0.5s0.3,0.4,0.4,0.7s0.3,0.5,0.4,0.7s0.2,0.4,0.2,0.5s0.1,0.3,0.2,0.6
					s0.2,0.6,0.3,0.9s0.2,0.6,0.2,0.9c0.1,0.3,0.1,0.5,0.2,0.6c0,0.1,0.1,0.4,0.1,0.7c0.1,0.3,0.1,0.6,0.2,0.9
					c0.1,0.3,0.1,0.7,0.2,1s0.1,0.6,0.1,0.8c0,0.2,0.1,0.4,0.2,0.7c0.1,0.3,0.2,0.5,0.4,0.8s0.3,0.5,0.5,0.8s0.4,0.5,0.6,0.7
					c0.2,0.2,0.6,0.6,1,1s1,0.9,1.6,1.4s1.1,1,1.6,1.4s0.9,0.8,1.2,1s0.8,0.5,1.3,0.9c0.6,0.4,1.3,0.8,1.9,1.2s1.4,0.8,2,1.2
					s1.1,0.6,1.4,0.8s0.9,0.4,1.5,0.6c0.7,0.2,1.4,0.5,2.2,0.7s1.6,0.5,2.2,0.6c0.7,0.2,1.2,0.3,1.6,0.4c0.3,0,0.7,0.1,1.2,0
					c0.5,0,1,0,1.6-0.1s1.2-0.1,1.8-0.2s1.2-0.2,1.7-0.3c0.2,0,0.3-0.1,0.5-0.1s0.3-0.1,0.4-0.1c0.1,0,0.3-0.1,0.4-0.1
					c0.1,0,0.2-0.1,0.3-0.1c0.4-0.1,0.9-0.4,1.6-0.8c0.6-0.4,1.4-0.9,2.1-1.4s1.4-1,2.1-1.5c0.6-0.5,1.1-0.9,1.4-1.2
					c0.3-0.3,0.7-0.8,1.2-1.5s1.1-1.4,1.6-2.2c0.6-0.8,1.1-1.6,1.6-2.3c0.5-0.7,0.9-1.3,1.1-1.7c0.2-0.4,0.6-1.1,0.9-1.9
					s0.8-1.8,1.2-2.8s0.8-2,1.2-2.9s0.6-1.6,0.8-2.1s0.4-1.2,0.7-2.2s0.6-2,0.9-3.1c0.3-1.1,0.6-2.1,0.8-3.1
					c0.2-0.9,0.4-1.7,0.5-2.2s0.3-1.3,0.4-2.2s0.4-2,0.6-3c0.2-1,0.4-2.1,0.5-3s0.3-1.6,0.3-2.1c0.1-0.5,0.2-1.1,0.3-1.9
					s0.2-1.7,0.3-2.6s0.2-1.8,0.3-2.6c0.1-0.8,0.2-1.4,0.2-1.8s0.1-0.9,0.1-1.5c0.1-0.6,0.1-1.3,0.2-2c0.1-0.7,0.1-1.3,0.1-1.9
					c0-0.5,0.1-1,0.1-1.2s0-0.7,0.1-1.2s0.1-1.3,0.1-2c0-0.8,0.1-1.6,0.1-2.4s0.1-1.6,0.1-2.4s0.1-1.9,0.1-3.3s0-3,0-4.6
					s0-3.2,0-4.5c0-1.4,0-2.5-0.1-3.2c0-0.7-0.1-1.7-0.2-2.8c-0.1-1.1-0.3-2.3-0.4-3.4s-0.3-2.2-0.4-3c-0.1-0.8-0.2-1.4-0.3-1.5
					c0,0,0,0-0.1-0.1c0,0-0.1,0-0.2,0c-0.1,0-0.1,0-0.2,0c-0.1,0-0.2,0-0.3,0c-0.4,0.1-0.9,0.2-1.5,0.4c-0.6,0.2-1.3,0.4-2.1,0.7
					c-0.8,0.3-1.6,0.6-2.5,1s-1.8,0.8-2.7,1.3c-1.2,0.6-2.3,1.2-3.4,1.7c-1.1,0.5-2,1-2.9,1.4c-0.8,0.4-1.6,0.8-2.1,1
					s-0.9,0.4-1,0.5c-0.1,0-0.1,0-0.2,0.1c-0.1,0-0.2,0-0.3,0.1c-0.1,0-0.2,0-0.3,0.1c-0.1,0-0.2,0-0.4,0.1c-0.2,0-0.4,0.1-0.5,0.1
					c-0.2,0-0.4,0.1-0.6,0.1s-0.4,0-0.5,0s-0.3,0-0.5,0s-0.6-0.1-1-0.3c-0.4-0.2-0.9-0.4-1.3-0.6s-0.9-0.5-1.2-0.8
					c-0.4-0.3-0.7-0.5-0.8-0.7c-0.2-0.2-0.3-0.6-0.5-1s-0.4-1.1-0.6-1.7s-0.3-1.2-0.5-1.7s-0.2-1-0.3-1.3c0-0.3-0.1-0.7-0.1-1.1
					c0-0.5,0-1,0-1.5s0.1-1,0.1-1.4s0.1-0.7,0.1-0.9s0.2-0.4,0.3-0.7c0.2-0.3,0.4-0.6,0.6-0.9c0.2-0.3,0.4-0.6,0.6-0.8
					c0.2-0.2,0.4-0.4,0.5-0.5s0.4-0.2,0.7-0.4s0.7-0.3,1.1-0.5s0.8-0.3,1.2-0.5s0.7-0.2,0.9-0.3s0.6-0.1,1-0.2
					c0.4-0.1,0.9-0.2,1.3-0.3c0.4-0.1,0.9-0.2,1.2-0.3s0.6-0.1,0.6-0.1s0.2,0,0.3-0.1c0.1,0,0.3-0.1,0.4-0.1
					c0.2-0.1,0.3-0.1,0.5-0.2c0.2-0.1,0.4-0.1,0.5-0.2c0.2-0.1,0.5-0.2,0.9-0.4s0.9-0.4,1.4-0.6c0.5-0.2,1-0.4,1.4-0.6
					c0.4-0.2,0.8-0.4,1.1-0.5c0.2-0.1,0.7-0.3,1.2-0.6c0.5-0.2,1.1-0.5,1.8-0.8c0.6-0.3,1.3-0.6,1.8-0.8c0.6-0.3,1-0.5,1.3-0.6
					s0.8-0.4,1.4-0.7c0.6-0.3,1.3-0.6,2-1s1.4-0.7,2-1s1.1-0.5,1.5-0.7c0.3-0.2,0.9-0.4,1.5-0.7s1.4-0.6,2.1-1
					c0.7-0.3,1.5-0.7,2.1-1s1.2-0.5,1.5-0.7s0.9-0.4,1.5-0.7s1.4-0.6,2.1-1c0.7-0.3,1.5-0.7,2.1-1s1.2-0.5,1.5-0.7
					c0.3-0.1,0.8-0.3,1.3-0.6c0.5-0.2,1-0.5,1.5-0.7s1-0.4,1.3-0.6c0.4-0.2,0.6-0.3,0.6-0.3s0.2-0.1,0.3-0.1
					c0.2-0.1,0.3-0.2,0.5-0.2s0.4-0.2,0.6-0.3c0.2-0.1,0.4-0.2,0.5-0.2s0.3-0.1,0.5-0.2c0.2-0.1,0.5-0.2,0.8-0.3s0.6-0.2,0.8-0.3
					s0.5-0.2,0.6-0.2c0.1-0.1,0.3-0.1,0.6-0.2c0.2-0.1,0.5-0.2,0.8-0.3s0.5-0.2,0.7-0.3s0.4-0.2,0.5-0.2s0.1-0.1,0.2-0.1
					s0.2-0.1,0.3-0.1c0.1,0,0.2,0,0.3-0.1C-120.2,227.3-120.1,227.3-120,227.2z"/>
			</g>
		</g>
	</g>
</g>
<g>
	
		<image style="overflow:visible;opacity:0.75;enable-background:new    ;" width="148" height="170" xlink:href="B33E61D9.png"  transform="matrix(1 0 0 1 -335 163)">
	</image>
	<g>
		<g class="st1">
			<g class="st1">
				<g>
					<defs>
						<path id="SVGID_7_" d="M-218.9,284.1l-12.1-10.5c-0.1-0.1-0.2-0.2-0.3-0.3c-0.1-0.1-0.2-0.2-0.4-0.3c-0.1-0.1-0.2-0.2-0.3-0.3
							c-0.1-0.1-0.2-0.2-0.2-0.2c-0.1-0.1-0.2-0.2-0.3-0.4c-0.1-0.2-0.2-0.4-0.3-0.6s-0.2-0.4-0.3-0.6s-0.2-0.3-0.2-0.4
							s-0.1-0.6-0.1-1.5s-0.1-2.2-0.1-3.7s0-3.3,0-5.1s0-3.9,0.1-6l11.3,4.3c-0.1,2.8-0.1,5.4-0.1,7.9s0,4.8,0,6.8s0.1,3.6,0.1,4.8
							s0.1,1.9,0.2,2c0.1,0.1,0.2,0.3,0.3,0.5s0.3,0.5,0.4,0.7c0.2,0.3,0.3,0.5,0.5,0.7s0.3,0.4,0.4,0.5c0.1,0.1,0.2,0.2,0.3,0.3
							c0.1,0.1,0.3,0.3,0.4,0.4c0.1,0.1,0.3,0.3,0.5,0.4C-219.2,283.9-219,284-218.9,284.1z"/>
					</defs>
					<clipPath id="SVGID_8_">
						<use xlink:href="#SVGID_7_"  style="overflow:visible;"/>
					</clipPath>
					<g class="st13">
						<path class="st3" d="M-218.9,284.1l-12.1-10.5c-0.1-0.1-0.2-0.2-0.3-0.3c-0.1-0.1-0.2-0.2-0.4-0.3c-0.1-0.1-0.2-0.2-0.3-0.3
							c-0.1-0.1-0.2-0.2-0.2-0.2c-0.1-0.1-0.2-0.2-0.3-0.4c-0.1-0.2-0.2-0.4-0.3-0.6s-0.2-0.4-0.3-0.6s-0.2-0.3-0.2-0.4
							s-0.1-0.6-0.1-1.5s-0.1-2.2-0.1-3.7s0-3.3,0-5.1s0-3.9,0.1-6l11.3,4.3c-0.1,2.8-0.1,5.4-0.1,7.9s0,4.8,0,6.8s0.1,3.6,0.1,4.8
							s0.1,1.9,0.2,2c0.1,0.1,0.2,0.3,0.3,0.5s0.3,0.5,0.4,0.7c0.2,0.3,0.3,0.5,0.5,0.7s0.3,0.4,0.4,0.5c0.1,0.1,0.2,0.2,0.3,0.3
							c0.1,0.1,0.3,0.3,0.4,0.4c0.1,0.1,0.3,0.3,0.5,0.4C-219.2,283.9-219,284-218.9,284.1"/>
					</g>
				</g>
			</g>
			<g class="st1">
				<g>
					<defs>
						<path id="SVGID_9_" d="M-302.3,290.9l-10.8,16.1c0-0.1,0.1-0.1,0.1-0.2s0.1-0.1,0.1-0.2s0.1-0.1,0.1-0.2c0,0,0-0.1,0.1-0.1
							c0.1-0.2,0.2-1,0.4-2.1s0.5-2.7,0.7-4.3c0.3-1.6,0.6-3.3,0.8-4.8c0.3-1.5,0.5-2.8,0.6-3.6c0.1-0.8,0.4-2.1,0.6-3.6
							s0.6-3.2,0.9-4.8c0.3-1.7,0.6-3.3,0.8-4.7c0.2-1.4,0.4-2.5,0.6-3.1c0.1-0.6,0.3-1.5,0.5-2.6s0.5-2.3,0.7-3.5s0.5-2.3,0.7-3.3
							s0.4-1.7,0.5-2.2c0.1-0.4,0.2-1,0.4-1.7c0.2-0.7,0.4-1.5,0.5-2.3c0.2-0.8,0.4-1.6,0.5-2.2c0.2-0.6,0.3-1.2,0.4-1.4
							c0.1-0.3,0.2-0.7,0.3-1.1c0.1-0.5,0.3-1,0.4-1.5s0.3-1,0.4-1.4s0.2-0.7,0.2-0.9s0.1-0.4,0.2-0.7s0.2-0.6,0.3-0.8
							c0.1-0.3,0.2-0.6,0.2-0.8c0.1-0.2,0.1-0.4,0.2-0.5l7.9-1.9c0,0.1-0.1,0.2-0.1,0.4c-0.1,0.2-0.1,0.4-0.2,0.6
							c-0.1,0.2-0.1,0.4-0.2,0.6c-0.1,0.2-0.1,0.4-0.1,0.5s-0.1,0.4-0.2,0.7s-0.2,0.7-0.3,1.1s-0.2,0.8-0.3,1.1
							c-0.1,0.3-0.2,0.6-0.2,0.9c-0.1,0.2-0.1,0.6-0.3,1.1c-0.1,0.5-0.3,1.1-0.4,1.7s-0.3,1.2-0.4,1.7s-0.2,1-0.3,1.3
							c-0.1,0.3-0.2,0.9-0.3,1.6c-0.2,0.7-0.3,1.6-0.5,2.5s-0.4,1.8-0.5,2.6c-0.2,0.8-0.3,1.5-0.4,2s-0.2,1.3-0.4,2.3
							c-0.2,1-0.4,2.3-0.6,3.5c-0.2,1.3-0.4,2.5-0.6,3.7c-0.2,1.1-0.4,2.1-0.5,2.7s-0.3,1.6-0.5,2.8s-0.4,2.4-0.6,3.6
							s-0.4,2.4-0.6,3.2c-0.2,0.9-0.3,1.5-0.3,1.6v0.1c0,0,0,0.1-0.1,0.1s0,0.1-0.1,0.1C-302.2,290.8-302.2,290.9-302.3,290.9z"/>
					</defs>
					<clipPath id="SVGID_10_">
						<use xlink:href="#SVGID_9_"  style="overflow:visible;"/>
					</clipPath>
					<g class="st14">
						<path class="st4" d="M-301,248.5l7.9-1.9c0,0.1-0.1,0.2-0.1,0.4s-0.1,0.4-0.2,0.6s-0.1,0.4-0.2,0.6c-0.1,0.2-0.1,0.4-0.2,0.5
							l-8.1,2.5c0.1-0.2,0.1-0.4,0.2-0.7s0.2-0.5,0.2-0.8s0.2-0.5,0.2-0.8S-301,248.6-301,248.5"/>
						<path class="st5" d="M-301.8,251.2l8.1-2.5l0,0l0,0l0,0l0,0c0,0.1-0.1,0.4-0.2,0.7s-0.2,0.7-0.3,1.1s-0.2,0.8-0.3,1.1
							c-0.1,0.3-0.2,0.6-0.2,0.9c-0.1,0.2-0.1,0.6-0.3,1.1c-0.1,0.5-0.3,1.1-0.4,1.7s-0.3,1.2-0.4,1.7s-0.2,1-0.3,1.3
							c-0.1,0.3-0.2,0.9-0.3,1.6c-0.2,0.7-0.3,1.6-0.5,2.5s-0.4,1.8-0.5,2.6c-0.2,0.8-0.3,1.5-0.4,2s-0.2,1.3-0.4,2.3
							c-0.2,1-0.4,2.3-0.6,3.5c-0.2,1.3-0.4,2.5-0.6,3.7c-0.2,1.1-0.4,2.1-0.5,2.7s-0.3,1.6-0.5,2.7s-0.4,2.4-0.6,3.6
							s-0.4,2.3-0.6,3.2s-0.3,1.5-0.3,1.7l-10.7,15.9c0.1-0.2,0.2-1.1,0.4-2.3c0.2-1.2,0.5-2.7,0.7-4.3s0.5-3.2,0.8-4.7
							c0.2-1.5,0.5-2.7,0.6-3.6c0.1-0.8,0.4-2.1,0.6-3.6s0.6-3.2,0.9-4.8c0.3-1.7,0.6-3.3,0.8-4.7c0.2-1.4,0.4-2.5,0.6-3.1
							c0.1-0.6,0.3-1.5,0.5-2.6s0.5-2.3,0.7-3.5s0.5-2.3,0.7-3.3s0.4-1.7,0.5-2.2c0.1-0.4,0.2-1,0.4-1.7c0.2-0.7,0.4-1.5,0.5-2.3
							c0.2-0.8,0.4-1.6,0.5-2.2c0.2-0.6,0.3-1.2,0.4-1.4c0.1-0.3,0.2-0.7,0.3-1.1c0.1-0.5,0.3-1,0.4-1.5s0.3-1,0.4-1.4
							S-301.9,251.4-301.8,251.2C-301.8,251.3-301.8,251.3-301.8,251.2L-301.8,251.2L-301.8,251.2L-301.8,251.2"/>
						<path class="st4" d="M-312.7,306.3l10.7-15.9l0,0l0,0l0,0l0,0l0,0l0,0l0,0l0,0l-10.8,16C-312.8,306.4-312.8,306.4-312.7,306.3
							c-0.1-0.1-0.1,0-0.1-0.1C-312.8,306.4-312.8,306.4-312.7,306.3C-312.8,306.4-312.8,306.4-312.7,306.3
							C-312.8,306.3-312.8,306.3-312.7,306.3L-312.7,306.3L-312.7,306.3L-312.7,306.3"/>
						<path class="st3" d="M-312.8,306.5l10.8-16c0,0,0,0,0,0.1s0,0.1,0,0.1s0,0.1-0.1,0.1c0,0,0,0.1-0.1,0.1L-313,307l0.1-0.1
							c0,0,0-0.1,0.1-0.1C-312.9,306.7-312.9,306.7-312.8,306.5C-312.9,306.6-312.9,306.6-312.8,306.5"/>
					</g>
				</g>
			</g>
			<g>
				<polygon class="st15" points="-222.2,258.5 -233.4,254.2 -232.8,225.5 -221.3,220.6 				"/>
			</g>
			<g class="st1">
				<g>
					<defs>
						<path id="SVGID_11_" d="M-273.7,205.5l1.3,8.6c0-0.2-0.1-0.4-0.1-0.6c0-0.2-0.1-0.4-0.1-0.5c0-0.2-0.1-0.3-0.1-0.5
							s0-0.2-0.1-0.3c0-0.1-0.1-0.3-0.1-0.5c-0.1-0.2-0.1-0.4-0.2-0.6c-0.1-0.2-0.2-0.4-0.2-0.5c-0.1-0.1-0.1-0.3-0.2-0.3
							c0,0-0.1-0.1-0.2-0.1s-0.2,0-0.3,0c-0.1,0-0.2,0-0.4,0s-0.3,0-0.4,0.1c-0.1,0-0.1,0-0.2,0s-0.1,0-0.2,0.1
							c-0.1,0-0.1,0-0.2,0.1c-0.1,0-0.1,0-0.2,0.1c-0.2,0.1-0.5,0.3-0.8,0.5c-0.3,0.3-0.8,0.6-1.2,0.9c-0.4,0.3-0.8,0.7-1.1,1
							c-0.3,0.3-0.6,0.6-0.8,0.8c-0.2,0.2-0.5,0.6-0.8,1.1s-0.7,1-1.1,1.6s-0.8,1.2-1.1,1.7c-0.3,0.5-0.6,1-0.8,1.3
							c-0.2,0.3-0.4,0.8-0.7,1.4c-0.3,0.6-0.6,1.3-1,2.1c-0.3,0.7-0.7,1.5-1,2.1s-0.5,1.2-0.7,1.5c-0.1,0.3-0.4,0.9-0.6,1.6
							c-0.3,0.7-0.6,1.5-0.8,2.2c-0.3,0.8-0.6,1.6-0.8,2.3c-0.2,0.7-0.5,1.3-0.6,1.6c-0.1,0.4-0.3,0.9-0.5,1.6
							c-0.2,0.7-0.5,1.4-0.7,2.2s-0.5,1.5-0.7,2.2s-0.4,1.2-0.5,1.5s-0.2,0.8-0.4,1.3c-0.1,0.5-0.3,1-0.4,1.5s-0.3,1-0.4,1.4
							s-0.2,0.6-0.2,0.7l-7.9,1.9c0-0.1,0.1-0.4,0.3-0.9c0.1-0.5,0.3-1.1,0.5-1.8s0.4-1.4,0.6-2c0.2-0.7,0.4-1.3,0.5-1.7
							s0.3-1.2,0.6-2c0.3-0.9,0.6-1.9,0.9-2.9s0.6-2,0.9-2.9s0.5-1.6,0.7-2.1s0.4-1.2,0.8-2.1c0.3-0.9,0.7-1.9,1.1-3
							c0.4-1,0.8-2.1,1.1-3c0.3-0.9,0.6-1.6,0.8-2.1c0.2-0.5,0.5-1.2,0.9-2s0.8-1.8,1.3-2.8s0.9-1.9,1.3-2.7s0.7-1.5,0.9-1.9
							c0.2-0.4,0.6-1,1-1.7s0.9-1.5,1.4-2.2s1-1.5,1.4-2.1s0.8-1.1,1-1.4c0.2-0.3,0.6-0.7,1.1-1.1s1-0.9,1.5-1.4s1.1-0.9,1.5-1.2
							s0.8-0.6,1.1-0.7c0.1,0,0.2-0.1,0.3-0.1c0.1,0,0.2-0.1,0.3-0.1c0.1,0,0.2,0,0.3-0.1c0.1,0,0.2,0,0.3-0.1
							c0.2,0,0.4-0.1,0.5-0.1c0.2,0,0.3,0,0.5,0s0.3,0,0.4,0s0.2,0.1,0.2,0.1c0.1,0.1,0.1,0.2,0.2,0.4s0.2,0.4,0.3,0.7
							c0.1,0.2,0.2,0.5,0.3,0.8c0.1,0.2,0.1,0.5,0.2,0.6c0,0.1,0,0.2,0.1,0.4c0,0.2,0.1,0.4,0.1,0.6c0,0.2,0.1,0.5,0.1,0.7
							S-273.8,205.3-273.7,205.5z"/>
					</defs>
					<clipPath id="SVGID_12_">
						<use xlink:href="#SVGID_11_"  style="overflow:visible;"/>
					</clipPath>
					<g class="st16">
						<path class="st3" d="M-273.7,205.5l1.3,8.6c0-0.2-0.1-0.4-0.1-0.6c0-0.2-0.1-0.4-0.1-0.5c0-0.2-0.1-0.3-0.1-0.5s0-0.2-0.1-0.3
							c0-0.1-0.1-0.3-0.1-0.5c-0.1-0.2-0.1-0.4-0.2-0.6c-0.1-0.2-0.2-0.4-0.2-0.5c-0.1-0.1-0.1-0.3-0.2-0.3c0,0-0.1-0.1-0.2-0.1
							s-0.2,0-0.3,0c-0.1,0-0.2,0-0.4,0s-0.3,0-0.4,0.1c-0.1,0-0.1,0-0.2,0s-0.1,0-0.2,0.1c-0.1,0-0.1,0-0.2,0.1
							c-0.1,0-0.1,0-0.2,0.1c-0.2,0.1-0.5,0.3-0.8,0.5c-0.3,0.3-0.8,0.6-1.2,0.9c-0.4,0.3-0.8,0.7-1.1,1c-0.3,0.3-0.6,0.6-0.8,0.8
							c-0.2,0.2-0.5,0.6-0.8,1.1s-0.7,1-1.1,1.6s-0.8,1.2-1.1,1.7c-0.3,0.5-0.6,1-0.8,1.3c0,0,0,0.1-0.1,0.1s0,0.1-0.1,0.1
							s-0.1,0.1-0.1,0.2s-0.1,0.1-0.1,0.2l-4.8-6.7c0-0.1,0.1-0.2,0.1-0.2c0-0.1,0.1-0.1,0.1-0.2s0.1-0.1,0.1-0.2
							c0-0.1,0.1-0.1,0.1-0.2c0.2-0.4,0.6-1,1-1.7s0.9-1.5,1.4-2.2s1-1.5,1.4-2.1s0.8-1.1,1-1.4c0.2-0.3,0.6-0.7,1.1-1.1
							s1-0.9,1.5-1.4s1.1-0.9,1.5-1.2s0.8-0.6,1.1-0.7c0.1,0,0.2-0.1,0.3-0.1c0.1,0,0.2-0.1,0.3-0.1c0.1,0,0.2,0,0.3-0.1
							c0.1,0,0.2,0,0.3-0.1c0.2,0,0.4-0.1,0.5-0.1c0.2,0,0.3,0,0.5,0s0.3,0,0.4,0s0.2,0.1,0.2,0.1c0.1,0.1,0.1,0.2,0.2,0.4
							s0.2,0.4,0.3,0.7c0.1,0.2,0.2,0.5,0.3,0.8c0.1,0.2,0.1,0.5,0.2,0.6c0,0.1,0,0.2,0.1,0.4c0,0.2,0.1,0.4,0.1,0.6
							c0,0.2,0.1,0.5,0.1,0.7S-273.8,205.3-273.7,205.5"/>
						<path class="st4" d="M-288.3,213.3l4.8,6.7c-0.2,0.4-0.5,1-0.8,1.6s-0.6,1.3-0.9,1.9c-0.3,0.6-0.6,1.3-0.8,1.8
							c-0.2,0.5-0.4,1-0.6,1.3c-0.1,0.3-0.4,0.9-0.6,1.6c-0.3,0.7-0.6,1.5-0.8,2.2c-0.3,0.8-0.6,1.6-0.8,2.3
							c-0.2,0.7-0.5,1.3-0.6,1.6s-0.3,0.9-0.5,1.5s-0.4,1.4-0.7,2.1c-0.2,0.7-0.5,1.5-0.7,2.1s-0.4,1.2-0.5,1.6l-7.4,0.2
							c0.1-0.5,0.4-1.2,0.6-2.1s0.6-1.8,0.9-2.8s0.6-1.9,0.9-2.8c0.3-0.8,0.5-1.5,0.7-2s0.4-1.2,0.8-2.1c0.3-0.9,0.7-1.9,1.1-3
							c0.4-1,0.8-2.1,1.1-3c0.3-0.9,0.6-1.6,0.8-2.1c0.2-0.4,0.4-1,0.8-1.7c0.3-0.7,0.7-1.5,1.1-2.4c0.4-0.8,0.8-1.7,1.2-2.5
							C-288.9,214.6-288.6,213.9-288.3,213.3"/>
						<path class="st5" d="M-299.1,241.9l7.4-0.2l0,0l0,0l0,0l0,0c-0.1,0.3-0.2,0.8-0.4,1.3c-0.1,0.5-0.3,1-0.4,1.5s-0.3,1-0.4,1.4
							s-0.2,0.6-0.2,0.7l-7.9,1.9c0-0.1,0.1-0.4,0.3-0.9c0.1-0.5,0.3-1.1,0.5-1.8s0.4-1.4,0.6-2c0.2-0.7,0.4-1.3,0.5-1.7l0,0l0,0
							C-299.2,242-299.2,241.9-299.1,241.9C-299.2,241.9-299.1,241.9-299.1,241.9"/>
					</g>
				</g>
			</g>
			<g class="st1">
				<g>
					<defs>
						<path id="SVGID_13_" d="M-221.3,220.6l-11.5,4.9c0-2.1,0.1-4.1,0.1-5.9s0.1-3.5,0.1-4.9s0.1-2.6,0.1-3.4c0-0.8,0-1.3,0-1.4
							l11.6-10c0,0.1,0,0.7,0,1.8s-0.1,2.6-0.1,4.5s-0.1,4.1-0.1,6.5C-221.2,215.2-221.2,217.9-221.3,220.6z"/>
					</defs>
					<clipPath id="SVGID_14_">
						<use xlink:href="#SVGID_13_"  style="overflow:visible;"/>
					</clipPath>
					<g class="st17">
						<path class="st3" d="M-221.3,220.6l-11.5,4.9c0-2.1,0.1-4.1,0.1-5.9s0.1-3.5,0.1-4.9s0.1-2.6,0.1-3.4c0-0.8,0-1.3,0-1.4
							l11.6-10c0,0.1,0,0.7,0,1.8s-0.1,2.6-0.1,4.5s-0.1,4.1-0.1,6.5C-221.2,215.2-221.2,217.9-221.3,220.6"/>
					</g>
				</g>
			</g>
			<g class="st1">
				<g>
					<defs>
						<path id="SVGID_15_" d="M-220.8,199.9l-11.6,10c0-0.1,0-0.2,0-0.3s0-0.3,0-0.4c0-0.1,0-0.3,0-0.4c0-0.1,0-0.2,0-0.3l11.6-10.4
							c0,0.1,0,0.2,0,0.4s0,0.3,0,0.5s0,0.4,0,0.5C-220.8,199.7-220.8,199.8-220.8,199.9z"/>
					</defs>
					<clipPath id="SVGID_16_">
						<use xlink:href="#SVGID_15_"  style="overflow:visible;"/>
					</clipPath>
					<g class="st18">
						<path class="st3" d="M-220.8,199.9l-11.6,10c0-0.1,0-0.2,0-0.3s0-0.3,0-0.4c0-0.1,0-0.3,0-0.4c0-0.1,0-0.2,0-0.3l11.6-10.4
							c0,0.1,0,0.2,0,0.4s0,0.3,0,0.5s0,0.4,0,0.5C-220.8,199.7-220.8,199.8-220.8,199.9"/>
					</g>
				</g>
			</g>
			<g class="st1">
				<g>
					<defs>
						<path id="SVGID_17_" d="M-220.9,198.1l-11.6,10.4c0-0.1,0-0.1,0-0.3c0-0.1,0-0.2,0-0.4s0-0.2-0.1-0.4c0-0.1,0-0.2,0-0.3
							s0-0.1-0.1-0.2c0-0.1-0.1-0.2-0.1-0.3s-0.1-0.2-0.1-0.3s-0.1-0.2-0.1-0.2s-0.1-0.1-0.1-0.2s-0.1-0.2-0.1-0.3s-0.1-0.2-0.1-0.3
							s-0.1-0.1-0.1-0.2l11.3-11.4c0,0.1,0.1,0.1,0.1,0.3c0.1,0.1,0.1,0.2,0.2,0.4c0.1,0.1,0.1,0.2,0.2,0.4c0,0.1,0.1,0.2,0.1,0.3
							s0.1,0.2,0.1,0.3s0.1,0.3,0.2,0.4c0.1,0.1,0.1,0.3,0.2,0.4c0,0.1,0.1,0.2,0.1,0.3s0,0.2,0.1,0.3s0.1,0.3,0.1,0.5
							s0,0.3,0.1,0.5S-220.9,198-220.9,198.1z"/>
					</defs>
					<clipPath id="SVGID_18_">
						<use xlink:href="#SVGID_17_"  style="overflow:visible;"/>
					</clipPath>
					<g class="st19">
						<path class="st3" d="M-220.9,198.1l-11.6,10.4c0-0.1,0-0.1,0-0.3c0-0.1,0-0.2,0-0.4s0-0.2-0.1-0.4c0-0.1,0-0.2,0-0.3
							s0-0.1-0.1-0.2c0-0.1-0.1-0.2-0.1-0.3s-0.1-0.2-0.1-0.3s-0.1-0.2-0.1-0.2s-0.1-0.1-0.1-0.2s-0.1-0.2-0.1-0.3s-0.1-0.2-0.1-0.3
							s-0.1-0.1-0.1-0.2l11.3-11.4c0,0.1,0.1,0.1,0.1,0.3c0.1,0.1,0.1,0.2,0.2,0.4c0.1,0.1,0.1,0.2,0.2,0.4c0,0.1,0.1,0.2,0.1,0.3
							s0.1,0.2,0.1,0.3s0.1,0.3,0.2,0.4c0.1,0.1,0.1,0.3,0.2,0.4c0,0.1,0.1,0.2,0.1,0.3s0,0.2,0.1,0.3s0.1,0.3,0.1,0.5
							s0,0.3,0.1,0.5S-220.9,198-220.9,198.1"/>
					</g>
				</g>
			</g>
			<g class="st1">
				<g>
					<defs>
						<path id="SVGID_19_" d="M-234.9,206.2l10.8-11.1c0.2-0.2,0.4-0.3,0.5-0.5c0.2-0.1,0.3-0.3,0.5-0.4c0.2-0.1,0.3-0.2,0.5-0.2
							c0.1-0.1,0.3-0.1,0.4-0.1l-11.3,11.4c-0.1,0-0.2,0-0.3,0.1s-0.2,0.1-0.4,0.2c-0.1,0.1-0.3,0.2-0.4,0.3S-234.8,206-234.9,206.2
							z"/>
					</defs>
					<clipPath id="SVGID_20_">
						<use xlink:href="#SVGID_19_"  style="overflow:visible;"/>
					</clipPath>
					<g class="st20">
						<path class="st3" d="M-222.2,193.9l-11.3,11.4c-0.1,0-0.2,0-0.3,0.1s-0.2,0.1-0.4,0.2c-0.1,0.1-0.3,0.2-0.4,0.3
							s-0.3,0.2-0.4,0.4l10.8-11.1c0.2-0.2,0.4-0.3,0.5-0.5c0.2-0.1,0.3-0.3,0.5-0.4c0.2-0.1,0.3-0.2,0.5-0.2
							C-222.5,193.9-222.3,193.9-222.2,193.9"/>
					</g>
				</g>
			</g>
			<g class="st1">
				<g>
					<defs>
						<path id="SVGID_21_" d="M-243.2,200.3l8.2-13c-0.2,0.3-0.5,0.8-0.8,1.3s-0.7,1.1-1,1.6c-0.3,0.6-0.7,1.1-0.9,1.6
							s-0.5,0.9-0.6,1.1c-0.1,0.3-0.4,0.6-0.6,1.1c-0.3,0.5-0.5,1-0.8,1.5s-0.6,1-0.8,1.5s-0.4,0.8-0.5,1s-0.2,0.4-0.3,0.6
							c-0.1,0.2-0.2,0.5-0.3,0.7s-0.2,0.4-0.3,0.6c-0.1,0.2-0.2,0.4-0.2,0.5c-0.1,0.1-0.2,0.4-0.4,0.8c-0.2,0.4-0.4,0.8-0.6,1.3
							c-0.2,0.5-0.4,0.9-0.7,1.4c-0.2,0.4-0.4,0.8-0.5,1.1s-0.4,0.8-0.6,1.4c-0.3,0.6-0.6,1.3-0.9,2c-0.3,0.7-0.7,1.5-1,2.1
							s-0.6,1.2-0.7,1.6c-0.2,0.4-0.4,1-0.8,1.7s-0.7,1.6-1.1,2.4c-0.4,0.9-0.8,1.7-1.1,2.5c-0.3,0.7-0.6,1.4-0.8,1.8
							c-0.2,0.4-0.5,1.1-0.8,1.8c-0.3,0.8-0.7,1.7-1.1,2.6s-0.8,1.8-1.1,2.5c-0.3,0.8-0.6,1.4-0.8,1.8c-0.2,0.4-0.4,1-0.7,1.7
							c-0.3,0.7-0.7,1.5-1,2.3c-0.4,0.8-0.7,1.6-1,2.3s-0.5,1.2-0.7,1.6c-0.1,0.3-0.3,0.8-0.6,1.4c-0.2,0.6-0.5,1.2-0.8,1.9
							c-0.3,0.6-0.5,1.3-0.8,1.8s-0.4,0.9-0.5,1.2l-1.7-0.6c0.1-0.2,0.2-0.5,0.4-0.9s0.4-0.9,0.6-1.3c0.2-0.5,0.4-1,0.6-1.4
							s0.3-0.8,0.4-1.1c0.1-0.2,0.3-0.7,0.5-1.2s0.5-1.1,0.8-1.7s0.5-1.2,0.8-1.8s0.4-1,0.6-1.3c0.1-0.3,0.3-0.8,0.6-1.4
							s0.6-1.3,0.8-1.9c0.3-0.7,0.6-1.4,0.9-1.9c0.3-0.6,0.5-1.1,0.6-1.4c0.1-0.3,0.3-0.8,0.6-1.4c0.3-0.6,0.5-1.2,0.8-1.9
							c0.3-0.6,0.6-1.3,0.8-1.8c0.3-0.6,0.5-1,0.6-1.3s0.3-0.7,0.5-1.2s0.5-1,0.7-1.6c0.3-0.5,0.5-1.1,0.7-1.5
							c0.2-0.5,0.4-0.8,0.5-1s0.2-0.5,0.4-0.8s0.3-0.7,0.5-1s0.3-0.7,0.5-1c0.1-0.3,0.2-0.5,0.3-0.6s0.1-0.2,0.2-0.4
							c0.1-0.1,0.2-0.3,0.2-0.5c0.1-0.2,0.2-0.3,0.3-0.5s0.2-0.3,0.2-0.5c0.1-0.1,0.2-0.4,0.4-0.7s0.4-0.7,0.6-1.1
							c0.2-0.4,0.4-0.8,0.6-1.1c0.2-0.3,0.4-0.6,0.5-0.8s0.3-0.5,0.5-0.8c0.2-0.4,0.5-0.8,0.7-1.2c0.3-0.4,0.5-0.9,0.8-1.2
							C-243.5,200.9-243.3,200.5-243.2,200.3z"/>
					</defs>
					<clipPath id="SVGID_22_">
						<use xlink:href="#SVGID_21_"  style="overflow:visible;"/>
					</clipPath>
					<g class="st21">
						<path class="st3" d="M-261.5,243.1l-1.7-0.6c0.1-0.2,0.2-0.5,0.4-0.9s0.4-0.9,0.6-1.3c0.2-0.5,0.4-1,0.6-1.4s0.3-0.8,0.4-1.1
							c0.1-0.2,0.3-0.7,0.5-1.2s0.5-1.1,0.8-1.7s0.5-1.2,0.8-1.8s0.4-1,0.6-1.3c0.1-0.3,0.3-0.8,0.6-1.4s0.6-1.3,0.8-1.9
							c0.3-0.7,0.6-1.4,0.9-1.9c0.3-0.6,0.5-1.1,0.6-1.4c0.1-0.3,0.3-0.8,0.6-1.4c0.3-0.6,0.5-1.2,0.8-1.9c0.3-0.6,0.6-1.3,0.8-1.8
							c0.3-0.6,0.5-1,0.6-1.3s0.3-0.7,0.5-1.2s0.5-1,0.7-1.6c0.3-0.5,0.5-1.1,0.7-1.5c0.2-0.5,0.4-0.8,0.5-1s0.2-0.5,0.4-0.8
							s0.3-0.7,0.5-1s0.3-0.7,0.5-1c0.1-0.3,0.2-0.5,0.3-0.6s0.1-0.2,0.2-0.4c0.1-0.1,0.2-0.3,0.2-0.5c0.1-0.2,0.2-0.3,0.3-0.5
							s0.2-0.3,0.2-0.5c0.1-0.1,0.2-0.4,0.4-0.7s0.4-0.7,0.6-1.1c0.2-0.4,0.4-0.8,0.6-1.1c0.2-0.3,0.4-0.6,0.5-0.8s0.3-0.5,0.5-0.8
							c0.2-0.4,0.5-0.8,0.7-1.2c0.3-0.4,0.5-0.9,0.8-1.2c0.2-0.4,0.4-0.7,0.6-1l8.2-13c-0.2,0.3-0.5,0.8-0.8,1.3s-0.7,1.1-1,1.6
							c-0.3,0.6-0.7,1.1-0.9,1.6s-0.5,0.9-0.6,1.1c-0.1,0.3-0.4,0.6-0.6,1.1c-0.3,0.5-0.5,1-0.8,1.5s-0.6,1-0.8,1.5s-0.4,0.8-0.5,1
							s-0.2,0.4-0.3,0.6c-0.1,0.2-0.2,0.5-0.3,0.7s-0.2,0.4-0.3,0.6c-0.1,0.2-0.2,0.4-0.2,0.5c-0.1,0.1-0.2,0.4-0.4,0.8
							c-0.2,0.4-0.4,0.8-0.6,1.3c-0.2,0.5-0.4,0.9-0.7,1.4c-0.2,0.4-0.4,0.8-0.5,1.1s-0.4,0.8-0.6,1.4c-0.3,0.6-0.6,1.3-0.9,2
							c-0.3,0.7-0.7,1.5-1,2.1s-0.6,1.2-0.7,1.6c-0.2,0.4-0.4,1-0.8,1.7s-0.7,1.6-1.1,2.4c-0.4,0.9-0.8,1.7-1.1,2.5
							c-0.3,0.7-0.6,1.4-0.8,1.8c-0.2,0.4-0.5,1.1-0.8,1.8c-0.3,0.8-0.7,1.7-1.1,2.6s-0.8,1.8-1.1,2.5c-0.3,0.8-0.6,1.4-0.8,1.8
							c-0.2,0.4-0.4,1-0.7,1.7c-0.3,0.7-0.7,1.5-1,2.3c-0.4,0.8-0.7,1.6-1,2.3s-0.5,1.2-0.7,1.6c-0.1,0.3-0.3,0.8-0.6,1.4
							c-0.2,0.6-0.5,1.2-0.8,1.9c-0.3,0.6-0.5,1.3-0.8,1.8S-261.4,242.9-261.5,243.1"/>
					</g>
				</g>
			</g>
			<g>
				<path class="st12" d="M-218,171.4c0.2,0,0.5,0,0.8,0.1s0.6,0.1,0.9,0.2c0.3,0.1,0.6,0.2,0.8,0.3s0.4,0.2,0.5,0.3
					s0.3,0.2,0.5,0.4s0.4,0.4,0.6,0.7c0.2,0.2,0.4,0.5,0.6,0.7c0.2,0.2,0.3,0.4,0.4,0.5c0.1,0.1,0.2,0.4,0.3,0.7s0.3,0.6,0.4,1
					c0.1,0.4,0.3,0.7,0.4,1c0.1,0.3,0.2,0.6,0.3,0.8s0.1,0.5,0.2,0.9c0.1,0.4,0.2,0.9,0.3,1.3c0.1,0.5,0.2,1,0.3,1.4
					c0.1,0.5,0.1,0.9,0.2,1.2c0,0.3,0.1,0.8,0.1,1.4c0,0.6,0.1,1.2,0.1,1.9s0.1,1.3,0.1,1.9c0,0.6,0,1.1,0,1.4c0,0.3,0,0.7,0,1.3
					c0,0.5,0,1.1,0,1.7c0,0.6,0,1.2,0,1.7s0,0.9,0,1.1c0,0.2,0,0.7,0,1.3s0,1.4,0,2.1s0,1.5,0,2.2s0,1.3,0,1.7s0,1.1,0,2
					s0,1.9,0,2.9s0,2.1,0,3s0,1.7,0,2.2s0,1.4,0,2.4s0,2.2,0.1,3.5c0,1.2,0,2.4,0.1,3.5s0,2,0,2.5c0,0.6,0,1.5,0,2.6s0,2.4,0.1,3.7
					s0,2.6,0.1,3.7s0,2,0,2.6s0,1.5,0,2.6s0,2.4,0.1,3.6c0,1.3,0,2.5,0.1,3.6c0,1.1,0,2,0,2.5s0,1.4,0,2.4s0,2.1,0,3.2s0,2.2,0,3.2
					c0,0.9,0,1.7,0,2.2s0,1.2,0,2s0,1.7,0,2.6s0,1.8,0,2.5s0,1.3,0,1.7c0,0.3,0,0.8,0,1.3s0,1,0,1.5s0,1,0,1.4s0,0.7,0,0.8
					c0,0.1,0,0.3,0,0.6c0,0.3,0,0.6-0.1,1c0,0.4-0.1,0.7-0.1,1s-0.1,0.6-0.1,0.8c0,0.2-0.1,0.5-0.2,0.8c-0.1,0.3-0.2,0.7-0.3,1.1
					s-0.2,0.8-0.3,1.1c-0.1,0.3-0.2,0.6-0.3,0.8c-0.1,0.2-0.2,0.4-0.4,0.7c-0.2,0.3-0.4,0.6-0.7,0.9s-0.5,0.6-0.7,0.9
					s-0.4,0.5-0.6,0.6c-0.1,0.1-0.3,0.2-0.6,0.3c-0.2,0.1-0.5,0.2-0.8,0.3c-0.3,0.1-0.6,0.2-0.9,0.3c-0.3,0.1-0.5,0.1-0.7,0.2
					c-0.2,0-0.4,0-0.6-0.1c-0.2-0.1-0.5-0.1-0.8-0.2s-0.5-0.2-0.7-0.3c-0.2-0.1-0.4-0.2-0.5-0.3c-0.1-0.1-0.3-0.2-0.5-0.4
					c-0.2-0.2-0.4-0.4-0.6-0.6c-0.2-0.2-0.4-0.4-0.6-0.6c-0.2-0.2-0.3-0.3-0.4-0.4c-0.1-0.1-0.2-0.3-0.4-0.5s-0.3-0.5-0.5-0.7
					c-0.2-0.3-0.3-0.5-0.4-0.7c-0.1-0.2-0.2-0.4-0.3-0.5s-0.1-0.8-0.2-2s-0.1-2.8-0.1-4.8s0-4.3,0-6.8s0.1-5.2,0.1-7.9l0.9-37.9
					c0.1-2.8,0.1-5.4,0.2-7.8c0.1-2.4,0.1-4.6,0.1-6.5s0.1-3.4,0.1-4.5s0-1.8,0-1.8c0-0.1,0-0.2,0-0.4s0-0.4,0-0.5
					c0-0.2,0-0.4,0-0.5c0-0.2,0-0.3,0-0.4c0-0.1,0-0.2,0-0.3s0-0.3-0.1-0.5s-0.1-0.3-0.1-0.5s0-0.3-0.1-0.3c0-0.1-0.1-0.2-0.1-0.3
					s-0.1-0.3-0.2-0.4c-0.1-0.1-0.1-0.3-0.2-0.4c0-0.1-0.1-0.2-0.1-0.3s-0.1-0.2-0.1-0.3s-0.1-0.2-0.2-0.4c-0.1-0.1-0.1-0.2-0.2-0.4
					c-0.1-0.1-0.1-0.2-0.1-0.3c-0.1,0-0.3,0-0.5,0.1s-0.4,0.2-0.6,0.3s-0.4,0.3-0.6,0.5c-0.2,0.2-0.4,0.4-0.6,0.7
					c-0.3,0.3-0.7,0.9-1.2,1.7c-0.5,0.7-1.1,1.6-1.7,2.5c-0.6,0.9-1.2,1.8-1.7,2.6s-1,1.5-1.2,1.9c-0.3,0.4-0.7,1.2-1.2,2.1
					c-0.5,0.9-1.1,2-1.7,3.1c-0.6,1.1-1.2,2.2-1.7,3.2s-0.9,1.8-1.2,2.3s-0.7,1.4-1.2,2.5s-1.1,2.3-1.6,3.5s-1.1,2.5-1.6,3.5
					c-0.5,1.1-0.9,2-1.2,2.5c-0.2,0.6-0.6,1.5-1.1,2.5c-0.4,1-0.9,2.2-1.4,3.4s-1,2.4-1.4,3.3c-0.4,1-0.7,1.8-0.9,2.2
					c-0.2,0.5-0.5,1.2-0.9,2.1c-0.4,0.9-0.8,2-1.2,3c-0.4,1.1-0.9,2.1-1.3,3.1c-0.4,0.9-0.7,1.7-0.9,2.2s-0.5,1.3-0.9,2.2
					s-0.9,2-1.3,3.1c-0.4,1.1-0.9,2.2-1.3,3.1c-0.4,0.9-0.7,1.7-0.9,2.2c-0.2,0.5-0.5,1.3-0.9,2.2c-0.4,0.9-0.8,2-1.2,3.1
					s-0.8,2.2-1.2,3.1c-0.4,0.9-0.7,1.7-0.8,2.2c-0.2,0.5-0.4,1.2-0.7,2c-0.3,0.8-0.6,1.7-0.9,2.6s-0.6,1.7-0.8,2.4
					s-0.4,1.2-0.5,1.5c-0.1,0.2-0.2,0.7-0.3,1.2c-0.1,0.6-0.3,1.2-0.4,1.9c-0.1,0.7-0.3,1.4-0.4,1.9c-0.1,0.6-0.2,1.1-0.3,1.4
					c-0.1,0.3-0.2,0.8-0.3,1.4c-0.1,0.6-0.3,1.3-0.5,2s-0.4,1.4-0.5,2c-0.2,0.6-0.3,1.1-0.4,1.4s-0.3,0.7-0.5,1.2s-0.5,1-0.7,1.6
					c-0.3,0.5-0.5,1.1-0.8,1.5c-0.2,0.4-0.4,0.8-0.6,1c-0.1,0.2-0.4,0.4-0.7,0.5c-0.3,0.2-0.6,0.4-1,0.5c-0.3,0.2-0.7,0.3-1,0.4
					s-0.6,0.2-0.8,0.2c-0.2,0-0.4,0-0.6,0c-0.3,0-0.5-0.1-0.8-0.1s-0.5-0.1-0.7-0.1c-0.2-0.1-0.4-0.1-0.5-0.1s-0.2-0.1-0.4-0.2
					c-0.2-0.1-0.3-0.2-0.5-0.4c-0.2-0.1-0.4-0.3-0.5-0.4s-0.3-0.2-0.3-0.3c-0.1-0.1-0.2-0.2-0.3-0.4c-0.1-0.2-0.2-0.4-0.3-0.6
					c-0.1-0.2-0.2-0.4-0.3-0.6c-0.1-0.2-0.2-0.4-0.2-0.5s-0.1-0.3-0.2-0.5s-0.1-0.5-0.2-0.8s-0.1-0.6-0.2-0.9s-0.1-0.5-0.1-0.7
					s0-0.4-0.1-0.7s0-0.7,0-1c0-0.4,0-0.7,0-1s0-0.6,0-0.7c0-0.2,0-0.5,0-1s0-1.1,0.1-1.8c0-0.7,0.1-1.4,0.1-2.1s0.1-1.4,0.1-2.1
					c0-0.6,0.1-1.7,0.2-2.9c0.1-1.2,0.2-2.6,0.3-4.1c0.1-1.4,0.2-2.8,0.3-4.1c0.1-1.2,0.2-2.3,0.2-2.9s0.1-1.7,0.2-3
					s0.2-2.7,0.3-4.2c0.1-1.5,0.2-2.9,0.3-4.2c0.1-1.3,0.2-2.4,0.2-3c0-0.7,0.1-1.8,0.2-3.1s0.2-2.9,0.3-4.5
					c0.1-1.6,0.2-3.2,0.3-4.5c0.1-1.4,0.2-2.5,0.2-3.3c0.1-0.7,0.1-1.8,0.2-3.1s0.2-2.7,0.2-4.1c0.1-1.4,0.2-2.7,0.2-3.7
					c0.1-1,0.1-1.8,0.1-2s0-0.7,0-1.2s0-1.1,0.1-1.7c0-0.6,0-1.2,0.1-1.7c0-0.5,0-1,0-1.2s0-0.7,0-1.3c0-0.5,0-1.2,0-1.8
					s0-1.3,0-1.8s0-1,0-1.3s0-0.7,0-1.2s0-1.1-0.1-1.7s0-1.2-0.1-1.7s0-0.9-0.1-1.2c0-0.2-0.1-0.6-0.1-1c-0.1-0.4-0.1-0.9-0.2-1.3
					s-0.1-0.9-0.2-1.3c-0.1-0.4-0.1-0.7-0.2-0.8c0-0.2-0.1-0.4-0.2-0.6c-0.1-0.2-0.2-0.5-0.3-0.8c-0.1-0.2-0.2-0.5-0.3-0.7
					c-0.1-0.2-0.2-0.3-0.2-0.4c0-0.1-0.1-0.1-0.2-0.1s-0.2,0-0.4,0s-0.3,0-0.5,0s-0.4,0-0.5,0.1c-0.1,0-0.2,0-0.3,0.1
					c-0.1,0-0.2,0-0.3,0.1c-0.1,0-0.2,0-0.3,0.1c-0.1,0-0.2,0.1-0.3,0.1c-0.2,0.1-0.6,0.3-1.1,0.7s-1,0.8-1.5,1.2
					c-0.5,0.5-1.1,0.9-1.5,1.4s-0.8,0.8-1.1,1.1c-0.2,0.3-0.6,0.8-1,1.4c-0.4,0.6-0.9,1.4-1.4,2.1s-1,1.5-1.4,2.2s-0.8,1.3-1,1.7
					s-0.6,1.1-0.9,1.9c-0.4,0.8-0.8,1.8-1.3,2.7c-0.5,1-0.9,1.9-1.3,2.8c-0.4,0.8-0.7,1.6-0.9,2c-0.2,0.5-0.5,1.2-0.8,2.1
					c-0.3,0.9-0.7,1.9-1.1,3c-0.4,1-0.8,2.1-1.1,3c-0.3,0.9-0.6,1.7-0.8,2.1c-0.2,0.5-0.4,1.2-0.7,2.1c-0.3,0.9-0.6,1.9-0.9,2.9
					s-0.6,2-0.9,2.9s-0.5,1.6-0.6,2s-0.3,1-0.5,1.7s-0.4,1.4-0.6,2c-0.2,0.7-0.4,1.3-0.5,1.8s-0.2,0.8-0.3,0.9
					c0,0.1-0.1,0.3-0.2,0.5s-0.2,0.5-0.2,0.8c-0.1,0.3-0.2,0.6-0.3,0.8s-0.1,0.5-0.2,0.7c0,0.2-0.1,0.5-0.2,0.9s-0.2,0.9-0.4,1.4
					c-0.1,0.5-0.3,1-0.4,1.5s-0.2,0.9-0.3,1.1c-0.1,0.3-0.2,0.8-0.4,1.4c-0.2,0.6-0.3,1.4-0.5,2.2c-0.2,0.8-0.4,1.6-0.5,2.3
					c-0.2,0.7-0.3,1.3-0.4,1.7c-0.1,0.4-0.3,1.2-0.5,2.2s-0.4,2.1-0.7,3.3c-0.2,1.2-0.5,2.4-0.7,3.5s-0.4,2-0.5,2.6
					s-0.3,1.7-0.6,3.1c-0.2,1.4-0.5,3-0.8,4.7s-0.6,3.3-0.9,4.8s-0.5,2.8-0.6,3.6c-0.1,0.8-0.4,2.1-0.6,3.6
					c-0.3,1.5-0.5,3.2-0.8,4.8c-0.3,1.6-0.5,3.1-0.7,4.3s-0.4,2-0.4,2.1c-0.1,0.2-0.2,0.4-0.4,0.7c-0.2,0.3-0.4,0.6-0.7,0.9
					c-0.2,0.3-0.5,0.6-0.7,0.8c-0.2,0.2-0.4,0.4-0.6,0.5c-0.1,0.1-0.2,0.1-0.4,0.2c-0.2,0.1-0.4,0.1-0.7,0.2s-0.5,0.1-0.8,0.2
					s-0.6,0.1-0.9,0.2c-0.2,0-0.3,0.1-0.5,0.1s-0.3,0-0.4,0.1c-0.1,0-0.3,0-0.4,0s-0.2,0-0.4,0c-0.3,0-0.7-0.1-1.2-0.3
					c-0.5-0.2-1-0.4-1.5-0.7c-0.5-0.3-1-0.6-1.3-0.9c-0.4-0.3-0.7-0.5-0.9-0.7c-0.2-0.2-0.3-0.6-0.5-1.1s-0.4-1.1-0.6-1.7
					s-0.3-1.2-0.4-1.7s-0.2-0.9-0.2-1s0-0.4,0-0.8c0-0.3,0-0.8,0.1-1.3c0-0.5,0.1-1,0.1-1.6s0.1-1.2,0.1-1.7
					c0.1-0.6,0.2-1.6,0.3-2.8c0.2-1.2,0.4-2.7,0.6-4.2s0.4-3,0.6-4.3s0.4-2.4,0.5-3.1s0.4-1.9,0.7-3.3c0.3-1.4,0.6-3.1,1-4.7
					c0.4-1.7,0.7-3.3,1-4.8s0.6-2.7,0.8-3.4c0.2-0.8,0.5-2,0.9-3.5s0.9-3.2,1.4-5s1-3.5,1.4-5s0.8-2.8,1-3.5c0.2-0.8,0.6-2,1.1-3.5
					s1-3.2,1.6-4.8c0.6-1.7,1.1-3.4,1.6-4.8c0.5-1.4,0.9-2.6,1.2-3.4c0.3-0.7,0.7-1.9,1.3-3.2c0.5-1.3,1.2-2.9,1.8-4.4
					c0.6-1.5,1.3-3.1,1.8-4.4c0.6-1.3,1-2.4,1.3-3s0.7-1.6,1.2-2.6s1.1-2.1,1.6-3.1s1.1-2,1.5-2.8s0.7-1.3,0.8-1.5s0.3-0.5,0.5-0.9
					s0.5-0.8,0.8-1.3s0.6-0.9,0.8-1.4c0.3-0.4,0.5-0.8,0.6-1s0.4-0.6,0.7-1.1c0.3-0.5,0.7-1,1-1.5c0.4-0.5,0.7-1.1,1.1-1.5
					c0.3-0.5,0.6-0.9,0.8-1.1c0.2-0.2,0.5-0.6,0.8-1.1c0.4-0.5,0.8-1,1.2-1.6c0.4-0.5,0.8-1.1,1.2-1.5s0.7-0.9,0.9-1.1
					c0.2-0.2,0.5-0.6,0.9-1s0.8-0.9,1.3-1.4c0.4-0.5,0.9-0.9,1.3-1.3c0.4-0.4,0.7-0.7,0.9-0.9s0.5-0.5,0.9-0.8s0.8-0.6,1.3-1
					c0.4-0.3,0.9-0.6,1.3-0.9c0.4-0.3,0.7-0.5,0.9-0.6c0.2-0.1,0.4-0.2,0.7-0.3s0.6-0.2,1-0.3s0.7-0.2,1.1-0.3s0.7-0.2,1-0.2
					c0.1,0,0.1,0,0.2,0s0.1,0,0.2,0s0.1,0,0.2,0s0.1,0,0.1,0c0.2,0,0.6,0,1.1,0c0.4,0,1,0.1,1.5,0.2s1,0.2,1.4,0.3s0.8,0.2,1,0.3
					s0.5,0.2,0.9,0.5c0.4,0.2,0.8,0.5,1.2,0.8c0.4,0.3,0.8,0.6,1.2,0.8c0.3,0.3,0.6,0.5,0.8,0.7c0.2,0.2,0.4,0.5,0.7,0.8
					s0.6,0.8,0.9,1.3s0.6,0.9,0.8,1.3c0.2,0.4,0.4,0.8,0.5,1s0.2,0.6,0.4,1s0.3,0.9,0.4,1.4s0.2,1,0.3,1.3c0.1,0.4,0.1,0.7,0.2,0.8
					c0,0.1,0,0.3,0.1,0.5c0,0.2,0,0.5,0.1,0.8c0,0.3,0,0.5,0,0.8c0,0.2,0,0.4,0,0.6c0,0.1,0,0.9,0,2.1c0,1.2,0,2.9-0.1,4.9
					c0,2-0.1,4.4-0.1,6.9s-0.1,5.2-0.1,8v3.9c0,2.6,0,5.1,0,7.3s0,4.2,0.1,5.9c0,1.7,0.1,3,0.1,3.9c0.1,0.9,0.1,1.4,0.2,1.4
					c0.1-0.2,0.3-0.6,0.5-1.2s0.5-1.1,0.8-1.8c0.3-0.6,0.5-1.3,0.8-1.9c0.2-0.6,0.5-1.1,0.6-1.4c0.1-0.3,0.4-0.9,0.7-1.6
					c0.3-0.7,0.6-1.5,1-2.3s0.7-1.6,1-2.3s0.6-1.3,0.7-1.7c0.2-0.4,0.4-1,0.8-1.8c0.3-0.8,0.7-1.7,1.1-2.5s0.8-1.8,1.1-2.6
					s0.6-1.4,0.8-1.8c0.2-0.4,0.5-1,0.8-1.8c0.3-0.7,0.7-1.6,1.1-2.5c0.4-0.9,0.8-1.7,1.1-2.4s0.6-1.3,0.8-1.7s0.4-0.9,0.7-1.6
					c0.3-0.6,0.6-1.4,1-2.1c0.3-0.7,0.7-1.4,0.9-2c0.3-0.6,0.5-1.1,0.6-1.4c0.1-0.3,0.3-0.7,0.5-1.1c0.2-0.4,0.4-0.9,0.7-1.4
					c0.2-0.5,0.4-0.9,0.6-1.3c0.2-0.4,0.3-0.6,0.4-0.8c0.1-0.1,0.2-0.3,0.2-0.5c0.1-0.2,0.2-0.4,0.3-0.6s0.2-0.4,0.3-0.7
					c0.1-0.2,0.2-0.4,0.3-0.6c0.1-0.2,0.3-0.5,0.5-1s0.5-0.9,0.8-1.5c0.3-0.5,0.6-1.1,0.8-1.5c0.3-0.5,0.5-0.9,0.6-1.1
					c0.1-0.3,0.4-0.7,0.7-1.2s0.7-1.1,1-1.7c0.4-0.6,0.7-1.2,1-1.7s0.6-1,0.8-1.2c0.2-0.3,0.5-0.7,0.8-1.2c0.4-0.5,0.8-1.1,1.2-1.7
					c0.4-0.6,0.8-1.2,1.2-1.7s0.7-0.9,0.9-1.2s0.5-0.7,0.9-1.1s0.8-1,1.3-1.5s0.9-1,1.3-1.4c0.4-0.4,0.7-0.8,0.9-1s0.5-0.5,0.9-0.8
					s0.9-0.7,1.3-1.1s0.9-0.7,1.3-1s0.7-0.5,1-0.7c0.2-0.1,0.5-0.2,0.8-0.3s0.7-0.2,1-0.3c0.4-0.1,0.7-0.2,1.1-0.3
					C-218.5,171.5-218.2,171.5-218,171.4z"/>
			</g>
		</g>
	</g>
</g>
</svg>
